<svg width="1920" height="157" viewBox="0 0 1920 157" fill="none" xmlns="http://www.w3.org/2000/svg">
<line x1="4.37114e-08" y1="0.5" x2="1921" y2="0.500168" stroke="url(#paint0_linear_1_57)"/>
<line x1="492.5" y1="157" x2="492.5" y2="1" stroke="#D5D5D5"/>
<line x1="941.5" y1="157" x2="941.5" y2="1" stroke="#D5D5D5"/>
<line x1="1390.5" y1="157" x2="1390.5" y2="1" stroke="#D5D5D5"/>
<path d="M178.654 94C178.287 94 177.987 93.8833 177.754 93.65C177.521 93.4167 177.404 93.1167 177.404 92.75V89.75C177.404 89.4833 177.471 89.1333 177.604 88.7C177.771 88.2333 178.121 87.7833 178.654 87.35L185.254 80.8C187.687 78.9333 189.654 77.35 191.154 76.05C192.687 74.75 193.821 73.5667 194.554 72.5C195.287 71.4333 195.654 70.4 195.654 69.4C195.654 68.1 195.287 67.0333 194.554 66.2C193.854 65.3333 192.704 64.9 191.104 64.9C190.037 64.9 189.137 65.1333 188.404 65.6C187.704 66.0333 187.154 66.6167 186.754 67.35C186.354 68.0833 186.087 68.8833 185.954 69.75C185.854 70.1833 185.637 70.4833 185.304 70.65C185.004 70.8167 184.687 70.9 184.354 70.9H179.054C178.721 70.9 178.454 70.8 178.254 70.6C178.054 70.3667 177.954 70.1167 177.954 69.85C177.987 68.3167 178.304 66.8667 178.904 65.5C179.537 64.1333 180.421 62.9167 181.554 61.85C182.687 60.7833 184.054 59.95 185.654 59.35C187.254 58.7167 189.071 58.4 191.104 58.4C193.904 58.4 196.254 58.8667 198.154 59.8C200.054 60.7 201.487 61.95 202.454 63.55C203.421 65.15 203.904 67 203.904 69.1C203.904 70.7 203.571 72.1833 202.904 73.55C202.271 74.9167 201.337 76.2333 200.104 77.5C198.871 78.7333 197.404 80.0167 195.704 81.35L189.804 87.25H203.404C203.771 87.25 204.071 87.3667 204.304 87.6C204.537 87.8333 204.654 88.1333 204.654 88.5V92.75C204.654 93.1167 204.537 93.4167 204.304 93.65C204.071 93.8833 203.771 94 203.404 94H178.654ZM226.25 94C225.917 94 225.634 93.8833 225.4 93.65C225.167 93.4167 225.05 93.1167 225.05 92.75V86.75H209.3C208.967 86.75 208.684 86.6333 208.45 86.4C208.217 86.1667 208.1 85.8667 208.1 85.5V81.45C208.1 81.2167 208.15 80.9667 208.25 80.7C208.35 80.4333 208.484 80.1833 208.65 79.95L223.3 59.85C223.734 59.2833 224.35 59 225.15 59H231.5C231.834 59 232.117 59.1167 232.35 59.35C232.584 59.5833 232.7 59.8833 232.7 60.25V80.1H237.15C237.55 80.1 237.85 80.2167 238.05 80.45C238.284 80.6833 238.4 80.9667 238.4 81.3V85.5C238.4 85.8667 238.284 86.1667 238.05 86.4C237.817 86.6333 237.534 86.75 237.2 86.75H232.7V92.75C232.7 93.1167 232.584 93.4167 232.35 93.65C232.117 93.8833 231.834 94 231.5 94H226.25ZM215.85 80.35H225.2V67.2L215.85 80.35Z" fill="#1C1F35"/>
<rect x="256" y="68" width="17" height="17" fill="url(#paint1_linear_1_57)"/>
<path d="M291.22 74.89C291.22 75.87 291.423 76.7533 291.83 77.54C292.243 78.3267 292.81 78.9533 293.53 79.42C294.25 79.88 295.077 80.11 296.01 80.11C296.95 80.11 297.777 79.88 298.49 79.42C299.21 78.9533 299.773 78.3267 300.18 77.54C300.587 76.7533 300.79 75.87 300.79 74.89C300.79 73.91 300.587 73.03 300.18 72.25C299.773 71.4633 299.21 70.84 298.49 70.38C297.777 69.92 296.95 69.69 296.01 69.69C295.077 69.69 294.25 69.92 293.53 70.38C292.81 70.84 292.243 71.4633 291.83 72.25C291.423 73.03 291.22 73.91 291.22 74.89ZM289.45 74.89C289.45 73.93 289.613 73.0367 289.94 72.21C290.273 71.3767 290.737 70.65 291.33 70.03C291.923 69.41 292.617 68.9267 293.41 68.58C294.21 68.2333 295.077 68.06 296.01 68.06C296.95 68.06 297.817 68.2333 298.61 68.58C299.41 68.9267 300.103 69.41 300.69 70.03C301.283 70.65 301.743 71.3767 302.07 72.21C302.397 73.0367 302.56 73.93 302.56 74.89C302.56 75.8567 302.397 76.7567 302.07 77.59C301.75 78.4167 301.293 79.1433 300.7 79.77C300.113 80.39 299.423 80.8733 298.63 81.22C297.837 81.5667 296.963 81.74 296.01 81.74C295.057 81.74 294.177 81.5667 293.37 81.22C292.57 80.8733 291.877 80.39 291.29 79.77C290.703 79.1433 290.25 78.4167 289.93 77.59C289.61 76.7567 289.45 75.8567 289.45 74.89ZM306.133 77.43C306.133 78.29 306.316 78.9767 306.683 79.49C307.056 79.9967 307.626 80.25 308.393 80.25C309.166 80.25 309.736 79.9967 310.103 79.49C310.47 78.9767 310.653 78.29 310.653 77.43V73.29H312.373V77.67C312.373 78.47 312.216 79.1767 311.903 79.79C311.596 80.4033 311.146 80.8833 310.553 81.23C309.966 81.57 309.246 81.74 308.393 81.74C307.546 81.74 306.826 81.57 306.233 81.23C305.646 80.8833 305.196 80.4033 304.883 79.79C304.576 79.1767 304.423 78.47 304.423 77.67V73.29H306.133V77.43ZM316.448 81.5H314.718V73.29H316.448V74.71H316.398C316.431 74.5367 316.554 74.32 316.768 74.06C316.981 73.8 317.274 73.5667 317.648 73.36C318.021 73.1533 318.468 73.05 318.988 73.05C319.368 73.05 319.701 73.1033 319.988 73.21C320.281 73.31 320.488 73.41 320.608 73.51L319.898 74.95C319.804 74.8567 319.641 74.7633 319.408 74.67C319.174 74.57 318.884 74.52 318.538 74.52C318.098 74.52 317.721 74.6567 317.408 74.93C317.094 75.2033 316.854 75.5333 316.688 75.92C316.528 76.3 316.448 76.6533 316.448 76.98V81.5ZM326.76 68.3H328.47V79.95H333.66V81.5H326.76V68.3ZM339.67 81.74C338.824 81.74 338.07 81.55 337.41 81.17C336.757 80.79 336.244 80.2767 335.87 79.63C335.497 78.9767 335.31 78.24 335.31 77.42C335.31 76.6 335.497 75.86 335.87 75.2C336.244 74.54 336.757 74.0167 337.41 73.63C338.07 73.2433 338.824 73.05 339.67 73.05C340.51 73.05 341.254 73.2433 341.9 73.63C342.554 74.0167 343.064 74.54 343.43 75.2C343.797 75.86 343.98 76.6 343.98 77.42C343.98 78.24 343.797 78.9767 343.43 79.63C343.064 80.2767 342.554 80.79 341.9 81.17C341.254 81.55 340.51 81.74 339.67 81.74ZM339.67 80.25C340.204 80.25 340.667 80.1267 341.06 79.88C341.46 79.6333 341.77 79.2967 341.99 78.87C342.21 78.4367 342.32 77.95 342.32 77.41C342.32 76.87 342.21 76.3833 341.99 75.95C341.77 75.5167 341.46 75.1733 341.06 74.92C340.667 74.6667 340.204 74.54 339.67 74.54C339.13 74.54 338.66 74.6667 338.26 74.92C337.86 75.1733 337.547 75.5167 337.32 75.95C337.1 76.3833 336.99 76.87 336.99 77.41C336.99 77.95 337.1 78.4367 337.32 78.87C337.547 79.2967 337.86 79.6333 338.26 79.88C338.66 80.1267 339.13 80.25 339.67 80.25ZM349.779 80.3C350.299 80.3 350.719 80.2167 351.039 80.05C351.359 79.8833 351.559 79.7633 351.639 79.69L352.489 80.94C352.423 81 352.263 81.0967 352.009 81.23C351.763 81.3567 351.443 81.4733 351.049 81.58C350.663 81.6867 350.223 81.74 349.729 81.74C348.976 81.74 348.276 81.5733 347.629 81.24C346.983 80.9 346.459 80.4067 346.059 79.76C345.666 79.1133 345.469 78.3233 345.469 77.39C345.469 76.45 345.666 75.66 346.059 75.02C346.459 74.3733 346.983 73.8833 347.629 73.55C348.276 73.2167 348.976 73.05 349.729 73.05C350.216 73.05 350.649 73.11 351.029 73.23C351.409 73.3433 351.723 73.47 351.969 73.61C352.216 73.75 352.379 73.8567 352.459 73.93L351.599 75.18C351.546 75.1267 351.443 75.0467 351.289 74.94C351.143 74.8267 350.943 74.7233 350.689 74.63C350.436 74.5367 350.133 74.49 349.779 74.49C349.353 74.49 348.936 74.6067 348.529 74.84C348.129 75.0667 347.799 75.3967 347.539 75.83C347.279 76.2633 347.149 76.7833 347.149 77.39C347.149 77.9967 347.279 78.52 347.539 78.96C347.799 79.3933 348.129 79.7267 348.529 79.96C348.936 80.1867 349.353 80.3 349.779 80.3ZM360.81 81.5V79.9C360.757 80.0667 360.6 80.2967 360.34 80.59C360.087 80.8833 359.737 81.15 359.29 81.39C358.85 81.6233 358.33 81.74 357.73 81.74C356.97 81.74 356.28 81.56 355.66 81.2C355.047 80.84 354.557 80.3367 354.19 79.69C353.83 79.0367 353.65 78.2733 353.65 77.4C353.65 76.5267 353.83 75.7667 354.19 75.12C354.557 74.4667 355.047 73.96 355.66 73.6C356.28 73.2333 356.97 73.05 357.73 73.05C358.323 73.05 358.837 73.1567 359.27 73.37C359.71 73.5833 360.06 73.83 360.32 74.11C360.587 74.39 360.743 74.63 360.79 74.83V73.29H362.51V81.5H360.81ZM355.37 77.4C355.37 77.9933 355.5 78.5067 355.76 78.94C356.02 79.3733 356.357 79.71 356.77 79.95C357.19 80.1833 357.637 80.3 358.11 80.3C358.617 80.3 359.07 80.18 359.47 79.94C359.87 79.7 360.187 79.3633 360.42 78.93C360.653 78.49 360.77 77.98 360.77 77.4C360.77 76.82 360.653 76.3133 360.42 75.88C360.187 75.44 359.87 75.1 359.47 74.86C359.07 74.6133 358.617 74.49 358.11 74.49C357.637 74.49 357.19 74.61 356.77 74.85C356.357 75.09 356.02 75.4267 355.76 75.86C355.5 76.2933 355.37 76.8067 355.37 77.4ZM364.135 73.29H365.745V69.92H367.475V73.29H369.585V74.78H367.475V78.84C367.475 79.32 367.558 79.6733 367.725 79.9C367.898 80.1267 368.128 80.24 368.415 80.24C368.668 80.24 368.865 80.1933 369.005 80.1C369.145 80.0067 369.228 79.9433 369.255 79.91L369.945 81.19C369.905 81.2233 369.798 81.2867 369.625 81.38C369.452 81.4733 369.228 81.5567 368.955 81.63C368.682 81.7033 368.362 81.74 367.995 81.74C367.355 81.74 366.818 81.5467 366.385 81.16C365.958 80.7667 365.745 80.1467 365.745 79.3V74.78H364.135V73.29ZM371.646 81.5V73.29H373.386V81.5H371.646ZM372.536 70.48C372.223 70.48 371.953 70.37 371.726 70.15C371.506 69.9233 371.396 69.6533 371.396 69.34C371.396 69.0267 371.506 68.7567 371.726 68.53C371.953 68.3033 372.223 68.19 372.536 68.19C372.743 68.19 372.933 68.2433 373.106 68.35C373.286 68.4567 373.43 68.5967 373.536 68.77C373.643 68.9367 373.696 69.1267 373.696 69.34C373.696 69.6533 373.583 69.9233 373.356 70.15C373.13 70.37 372.856 70.48 372.536 70.48ZM379.846 81.74C378.999 81.74 378.246 81.55 377.586 81.17C376.933 80.79 376.419 80.2767 376.046 79.63C375.673 78.9767 375.486 78.24 375.486 77.42C375.486 76.6 375.673 75.86 376.046 75.2C376.419 74.54 376.933 74.0167 377.586 73.63C378.246 73.2433 378.999 73.05 379.846 73.05C380.686 73.05 381.429 73.2433 382.076 73.63C382.729 74.0167 383.239 74.54 383.606 75.2C383.973 75.86 384.156 76.6 384.156 77.42C384.156 78.24 383.973 78.9767 383.606 79.63C383.239 80.2767 382.729 80.79 382.076 81.17C381.429 81.55 380.686 81.74 379.846 81.74ZM379.846 80.25C380.379 80.25 380.843 80.1267 381.236 79.88C381.636 79.6333 381.946 79.2967 382.166 78.87C382.386 78.4367 382.496 77.95 382.496 77.41C382.496 76.87 382.386 76.3833 382.166 75.95C381.946 75.5167 381.636 75.1733 381.236 74.92C380.843 74.6667 380.379 74.54 379.846 74.54C379.306 74.54 378.836 74.6667 378.436 74.92C378.036 75.1733 377.723 75.5167 377.496 75.95C377.276 76.3833 377.166 76.87 377.166 77.41C377.166 77.95 377.276 78.4367 377.496 78.87C377.723 79.2967 378.036 79.6333 378.436 79.88C378.836 80.1267 379.306 80.25 379.846 80.25ZM390.675 73.05C391.215 73.05 391.738 73.1633 392.245 73.39C392.758 73.6167 393.178 73.9767 393.505 74.47C393.838 74.9567 394.005 75.5933 394.005 76.38V81.5H392.245V76.72C392.245 75.9067 392.055 75.3167 391.675 74.95C391.295 74.5767 390.805 74.39 390.205 74.39C389.812 74.39 389.432 74.5033 389.065 74.73C388.705 74.95 388.408 75.2567 388.175 75.65C387.942 76.0367 387.825 76.4767 387.825 76.97V81.5H386.085V73.29H387.825V74.75C387.885 74.5233 388.048 74.2767 388.315 74.01C388.582 73.7433 388.922 73.5167 389.335 73.33C389.748 73.1433 390.195 73.05 390.675 73.05Z" fill="#1C1F35"/>
<path d="M587.879 94C587.546 94 587.246 93.8833 586.979 93.65C586.746 93.4167 586.629 93.1167 586.629 92.75V67.9L579.429 73.45C579.129 73.6833 578.813 73.7667 578.479 73.7C578.179 73.6333 577.913 73.45 577.679 73.15L575.179 69.9C574.979 69.6 574.896 69.2833 574.929 68.95C574.996 68.6167 575.179 68.35 575.479 68.15L586.879 59.35C587.079 59.2167 587.263 59.1333 587.429 59.1C587.629 59.0333 587.846 59 588.079 59H593.379C593.713 59 593.996 59.1167 594.229 59.35C594.463 59.5833 594.579 59.8833 594.579 60.25V92.75C594.579 93.1167 594.463 93.4167 594.229 93.65C593.996 93.8833 593.713 94 593.379 94H587.879ZM601.355 94C600.988 94 600.688 93.8833 600.455 93.65C600.222 93.4167 600.105 93.1167 600.105 92.75V89.75C600.105 89.4833 600.172 89.1333 600.305 88.7C600.472 88.2333 600.822 87.7833 601.355 87.35L607.955 80.8C610.388 78.9333 612.355 77.35 613.855 76.05C615.388 74.75 616.522 73.5667 617.255 72.5C617.988 71.4333 618.355 70.4 618.355 69.4C618.355 68.1 617.988 67.0333 617.255 66.2C616.555 65.3333 615.405 64.9 613.805 64.9C612.738 64.9 611.838 65.1333 611.105 65.6C610.405 66.0333 609.855 66.6167 609.455 67.35C609.055 68.0833 608.788 68.8833 608.655 69.75C608.555 70.1833 608.338 70.4833 608.005 70.65C607.705 70.8167 607.388 70.9 607.055 70.9H601.755C601.422 70.9 601.155 70.8 600.955 70.6C600.755 70.3667 600.655 70.1167 600.655 69.85C600.688 68.3167 601.005 66.8667 601.605 65.5C602.238 64.1333 603.122 62.9167 604.255 61.85C605.388 60.7833 606.755 59.95 608.355 59.35C609.955 58.7167 611.772 58.4 613.805 58.4C616.605 58.4 618.955 58.8667 620.855 59.8C622.755 60.7 624.188 61.95 625.155 63.55C626.122 65.15 626.605 67 626.605 69.1C626.605 70.7 626.272 72.1833 625.605 73.55C624.972 74.9167 624.038 76.2333 622.805 77.5C621.572 78.7333 620.105 80.0167 618.405 81.35L612.505 87.25H626.105C626.472 87.25 626.772 87.3667 627.005 87.6C627.238 87.8333 627.355 88.1333 627.355 88.5V92.75C627.355 93.1167 627.238 93.4167 627.005 93.65C626.772 93.8833 626.472 94 626.105 94H601.355ZM638.595 94C638.295 94 638.045 93.9 637.845 93.7C637.645 93.4667 637.545 93.2 637.545 92.9C637.545 92.7333 637.561 92.6 637.595 92.5C637.661 92.4 637.711 92.3167 637.745 92.25L644.995 82.35C644.395 82.4833 643.795 82.5333 643.195 82.5C641.595 82.4333 640.078 82.1167 638.645 81.55C637.211 80.95 635.928 80.1333 634.795 79.1C633.661 78.0667 632.778 76.85 632.145 75.45C631.511 74.05 631.195 72.5 631.195 70.8C631.195 69.2667 631.478 67.7667 632.045 66.3C632.645 64.8333 633.528 63.5167 634.695 62.35C635.861 61.1833 637.311 60.25 639.045 59.55C640.778 58.85 642.795 58.5 645.095 58.5C647.395 58.5 649.411 58.8167 651.145 59.45C652.911 60.0833 654.395 60.9667 655.595 62.1C656.795 63.2 657.695 64.4833 658.295 65.95C658.895 67.3833 659.195 68.9167 659.195 70.55C659.195 72.0167 658.945 73.3833 658.445 74.65C657.945 75.9167 657.328 77.1 656.595 78.2C655.861 79.3 655.128 80.3667 654.395 81.4L645.995 93C645.861 93.1667 645.661 93.3833 645.395 93.65C645.128 93.8833 644.745 94 644.245 94H638.595ZM645.145 76.6C646.245 76.6 647.245 76.3667 648.145 75.9C649.045 75.4333 649.745 74.7667 650.245 73.9C650.778 73.0333 651.045 72 651.045 70.8C651.045 69.5667 650.778 68.5167 650.245 67.65C649.745 66.7833 649.045 66.1167 648.145 65.65C647.245 65.1833 646.245 64.95 645.145 64.95C644.078 64.95 643.095 65.1833 642.195 65.65C641.295 66.1167 640.578 66.7833 640.045 67.65C639.545 68.5167 639.295 69.5667 639.295 70.8C639.295 72 639.545 73.0333 640.045 73.9C640.578 74.7667 641.295 75.4333 642.195 75.9C643.095 76.3667 644.078 76.6 645.145 76.6ZM680.25 94C679.917 94 679.634 93.8833 679.4 93.65C679.167 93.4167 679.05 93.1167 679.05 92.75V86.75H663.3C662.967 86.75 662.684 86.6333 662.45 86.4C662.217 86.1667 662.1 85.8667 662.1 85.5V81.45C662.1 81.2167 662.15 80.9667 662.25 80.7C662.35 80.4333 662.484 80.1833 662.65 79.95L677.3 59.85C677.734 59.2833 678.35 59 679.15 59H685.5C685.834 59 686.117 59.1167 686.35 59.35C686.584 59.5833 686.7 59.8833 686.7 60.25V80.1H691.15C691.55 80.1 691.85 80.2167 692.05 80.45C692.284 80.6833 692.4 80.9667 692.4 81.3V85.5C692.4 85.8667 692.284 86.1667 692.05 86.4C691.817 86.6333 691.534 86.75 691.2 86.75H686.7V92.75C686.7 93.1167 686.584 93.4167 686.35 93.65C686.117 93.8833 685.834 94 685.5 94H680.25ZM669.85 80.35H679.2V67.2L669.85 80.35Z" fill="#1C1F35"/>
<rect x="705" y="68" width="17" height="17" fill="url(#paint2_linear_1_57)"/>
<path d="M734.06 68.3H737.17C738.577 68.3 739.733 68.5833 740.64 69.15C741.553 69.71 742.23 70.4867 742.67 71.48C743.11 72.4733 743.33 73.61 743.33 74.89C743.33 76.1767 743.11 77.3167 742.67 78.31C742.23 79.3033 741.557 80.0833 740.65 80.65C739.743 81.2167 738.583 81.5 737.17 81.5H734.06V68.3ZM735.76 69.86V79.94H737.03C738.07 79.94 738.92 79.7233 739.58 79.29C740.24 78.8567 740.727 78.2633 741.04 77.51C741.36 76.75 741.523 75.8833 741.53 74.91C741.53 73.93 741.373 73.0633 741.06 72.31C740.747 71.55 740.257 70.9533 739.59 70.52C738.923 70.08 738.07 69.86 737.03 69.86H735.76ZM746.546 77.75C746.553 78.2433 746.66 78.6933 746.866 79.1C747.073 79.5067 747.38 79.83 747.786 80.07C748.2 80.31 748.706 80.43 749.306 80.43C749.813 80.43 750.243 80.3567 750.596 80.21C750.956 80.0567 751.25 79.8767 751.476 79.67C751.703 79.4567 751.866 79.2667 751.966 79.1L752.816 80.15C752.596 80.47 752.326 80.75 752.006 80.99C751.693 81.23 751.31 81.4133 750.856 81.54C750.403 81.6733 749.85 81.74 749.196 81.74C748.316 81.74 747.553 81.5533 746.906 81.18C746.266 80.8 745.773 80.2767 745.426 79.61C745.08 78.9367 744.906 78.1667 744.906 77.3C744.906 76.5 745.07 75.78 745.396 75.14C745.723 74.4933 746.196 73.9833 746.816 73.61C747.443 73.2367 748.196 73.05 749.076 73.05C749.883 73.05 750.583 73.22 751.176 73.56C751.776 73.8933 752.24 74.3667 752.566 74.98C752.9 75.5933 753.066 76.3267 753.066 77.18C753.066 77.2333 753.063 77.33 753.056 77.47C753.05 77.6033 753.043 77.6967 753.036 77.75H746.546ZM751.406 76.44C751.4 76.1667 751.32 75.8667 751.166 75.54C751.02 75.2133 750.78 74.9333 750.446 74.7C750.113 74.4667 749.663 74.35 749.096 74.35C748.51 74.35 748.036 74.4633 747.676 74.69C747.323 74.9167 747.063 75.1933 746.896 75.52C746.73 75.84 746.633 76.1467 746.606 76.44H751.406ZM756.798 81.5H755.048V67.74H756.798V81.5ZM759.494 81.5V73.29H761.234V81.5H759.494ZM760.384 70.48C760.071 70.48 759.801 70.37 759.574 70.15C759.354 69.9233 759.244 69.6533 759.244 69.34C759.244 69.0267 759.354 68.7567 759.574 68.53C759.801 68.3033 760.071 68.19 760.384 68.19C760.591 68.19 760.781 68.2433 760.954 68.35C761.134 68.4567 761.277 68.5967 761.384 68.77C761.491 68.9367 761.544 69.1267 761.544 69.34C761.544 69.6533 761.431 69.9233 761.204 70.15C760.977 70.37 760.704 70.48 760.384 70.48ZM763.074 73.29H764.944L767.624 79.89L770.304 73.29H772.164L768.654 81.5H766.604L763.074 73.29ZM774.886 77.75C774.893 78.2433 774.999 78.6933 775.206 79.1C775.413 79.5067 775.719 79.83 776.126 80.07C776.539 80.31 777.046 80.43 777.646 80.43C778.153 80.43 778.583 80.3567 778.936 80.21C779.296 80.0567 779.589 79.8767 779.816 79.67C780.043 79.4567 780.206 79.2667 780.306 79.1L781.156 80.15C780.936 80.47 780.666 80.75 780.346 80.99C780.033 81.23 779.649 81.4133 779.196 81.54C778.743 81.6733 778.189 81.74 777.536 81.74C776.656 81.74 775.893 81.5533 775.246 81.18C774.606 80.8 774.113 80.2767 773.766 79.61C773.419 78.9367 773.246 78.1667 773.246 77.3C773.246 76.5 773.409 75.78 773.736 75.14C774.063 74.4933 774.536 73.9833 775.156 73.61C775.783 73.2367 776.536 73.05 777.416 73.05C778.223 73.05 778.923 73.22 779.516 73.56C780.116 73.8933 780.579 74.3667 780.906 74.98C781.239 75.5933 781.406 76.3267 781.406 77.18C781.406 77.2333 781.403 77.33 781.396 77.47C781.389 77.6033 781.383 77.6967 781.376 77.75H774.886ZM779.746 76.44C779.739 76.1667 779.659 75.8667 779.506 75.54C779.359 75.2133 779.119 74.9333 778.786 74.7C778.453 74.4667 778.003 74.35 777.436 74.35C776.849 74.35 776.376 74.4633 776.016 74.69C775.663 74.9167 775.403 75.1933 775.236 75.52C775.069 75.84 774.973 76.1467 774.946 76.44H779.746ZM785.037 81.5H783.307V73.29H785.037V74.71H784.987C785.021 74.5367 785.144 74.32 785.357 74.06C785.571 73.8 785.864 73.5667 786.237 73.36C786.611 73.1533 787.057 73.05 787.577 73.05C787.957 73.05 788.291 73.1033 788.577 73.21C788.871 73.31 789.077 73.41 789.197 73.51L788.487 74.95C788.394 74.8567 788.231 74.7633 787.997 74.67C787.764 74.57 787.474 74.52 787.127 74.52C786.687 74.52 786.311 74.6567 785.997 74.93C785.684 75.2033 785.444 75.5333 785.277 75.92C785.117 76.3 785.037 76.6533 785.037 76.98V81.5ZM791.234 77.75C791.24 78.2433 791.347 78.6933 791.554 79.1C791.76 79.5067 792.067 79.83 792.474 80.07C792.887 80.31 793.394 80.43 793.994 80.43C794.5 80.43 794.93 80.3567 795.284 80.21C795.644 80.0567 795.937 79.8767 796.164 79.67C796.39 79.4567 796.554 79.2667 796.654 79.1L797.504 80.15C797.284 80.47 797.014 80.75 796.694 80.99C796.38 81.23 795.997 81.4133 795.544 81.54C795.09 81.6733 794.537 81.74 793.884 81.74C793.004 81.74 792.24 81.5533 791.594 81.18C790.954 80.8 790.46 80.2767 790.114 79.61C789.767 78.9367 789.594 78.1667 789.594 77.3C789.594 76.5 789.757 75.78 790.084 75.14C790.41 74.4933 790.884 73.9833 791.504 73.61C792.13 73.2367 792.884 73.05 793.764 73.05C794.57 73.05 795.27 73.22 795.864 73.56C796.464 73.8933 796.927 74.3667 797.254 74.98C797.587 75.5933 797.754 76.3267 797.754 77.18C797.754 77.2333 797.75 77.33 797.744 77.47C797.737 77.6033 797.73 77.6967 797.724 77.75H791.234ZM796.094 76.44C796.087 76.1667 796.007 75.8667 795.854 75.54C795.707 75.2133 795.467 74.9333 795.134 74.7C794.8 74.4667 794.35 74.35 793.784 74.35C793.197 74.35 792.724 74.4633 792.364 74.69C792.01 74.9167 791.75 75.1933 791.584 75.52C791.417 75.84 791.32 76.1467 791.294 76.44H796.094ZM803.295 81.74C802.542 81.74 801.865 81.56 801.265 81.2C800.672 80.84 800.202 80.3367 799.855 79.69C799.515 79.0367 799.345 78.2733 799.345 77.4C799.345 76.5267 799.515 75.7667 799.855 75.12C800.202 74.4667 800.672 73.96 801.265 73.6C801.865 73.2333 802.542 73.05 803.295 73.05C803.902 73.05 804.435 73.1567 804.895 73.37C805.355 73.5767 805.722 73.82 805.995 74.1C806.268 74.38 806.425 74.6233 806.465 74.83V67.74H808.215V81.5H806.495V79.9C806.422 80.1267 806.238 80.3833 805.945 80.67C805.658 80.9567 805.288 81.2067 804.835 81.42C804.382 81.6333 803.868 81.74 803.295 81.74ZM803.695 80.3C804.202 80.3 804.665 80.18 805.085 79.94C805.505 79.7 805.838 79.3633 806.085 78.93C806.338 78.49 806.465 77.98 806.465 77.4C806.465 76.82 806.338 76.3133 806.085 75.88C805.838 75.44 805.505 75.1 805.085 74.86C804.665 74.6133 804.202 74.49 803.695 74.49C803.228 74.49 802.795 74.61 802.395 74.85C801.995 75.09 801.672 75.4267 801.425 75.86C801.185 76.2933 801.065 76.8067 801.065 77.4C801.065 77.9933 801.185 78.5067 801.425 78.94C801.672 79.3733 801.995 79.71 802.395 79.95C802.795 80.1833 803.228 80.3 803.695 80.3ZM815.294 68.3H819.034C819.86 68.3 820.604 68.4367 821.264 68.71C821.93 68.9767 822.46 69.3967 822.854 69.97C823.247 70.5433 823.444 71.29 823.444 72.21C823.444 73.1233 823.247 73.88 822.854 74.48C822.46 75.08 821.93 75.53 821.264 75.83C820.604 76.1233 819.86 76.27 819.034 76.27H817.004V81.5H815.294V68.3ZM817.004 74.84H818.564C819.13 74.84 819.644 74.7567 820.104 74.59C820.57 74.4233 820.94 74.15 821.214 73.77C821.494 73.39 821.634 72.88 821.634 72.24C821.634 71.5933 821.494 71.09 821.214 70.73C820.94 70.3633 820.57 70.1067 820.104 69.96C819.644 69.8067 819.13 69.73 818.564 69.73H817.004V74.84ZM831.47 81.5V79.9C831.417 80.0667 831.26 80.2967 831 80.59C830.747 80.8833 830.397 81.15 829.95 81.39C829.51 81.6233 828.99 81.74 828.39 81.74C827.63 81.74 826.94 81.56 826.32 81.2C825.707 80.84 825.217 80.3367 824.85 79.69C824.49 79.0367 824.31 78.2733 824.31 77.4C824.31 76.5267 824.49 75.7667 824.85 75.12C825.217 74.4667 825.707 73.96 826.32 73.6C826.94 73.2333 827.63 73.05 828.39 73.05C828.984 73.05 829.497 73.1567 829.93 73.37C830.37 73.5833 830.72 73.83 830.98 74.11C831.247 74.39 831.404 74.63 831.45 74.83V73.29H833.17V81.5H831.47ZM826.03 77.4C826.03 77.9933 826.16 78.5067 826.42 78.94C826.68 79.3733 827.017 79.71 827.43 79.95C827.85 80.1833 828.297 80.3 828.77 80.3C829.277 80.3 829.73 80.18 830.13 79.94C830.53 79.7 830.847 79.3633 831.08 78.93C831.314 78.49 831.43 77.98 831.43 77.4C831.43 76.82 831.314 76.3133 831.08 75.88C830.847 75.44 830.53 75.1 830.13 74.86C829.73 74.6133 829.277 74.49 828.77 74.49C828.297 74.49 827.85 74.61 827.43 74.85C827.017 75.09 826.68 75.4267 826.42 75.86C826.16 76.2933 826.03 76.8067 826.03 77.4ZM839.365 80.3C839.885 80.3 840.305 80.2167 840.625 80.05C840.945 79.8833 841.145 79.7633 841.225 79.69L842.075 80.94C842.009 81 841.849 81.0967 841.595 81.23C841.349 81.3567 841.029 81.4733 840.635 81.58C840.249 81.6867 839.809 81.74 839.315 81.74C838.562 81.74 837.862 81.5733 837.215 81.24C836.569 80.9 836.045 80.4067 835.645 79.76C835.252 79.1133 835.055 78.3233 835.055 77.39C835.055 76.45 835.252 75.66 835.645 75.02C836.045 74.3733 836.569 73.8833 837.215 73.55C837.862 73.2167 838.562 73.05 839.315 73.05C839.802 73.05 840.235 73.11 840.615 73.23C840.995 73.3433 841.309 73.47 841.555 73.61C841.802 73.75 841.965 73.8567 842.045 73.93L841.185 75.18C841.132 75.1267 841.029 75.0467 840.875 74.94C840.729 74.8267 840.529 74.7233 840.275 74.63C840.022 74.5367 839.719 74.49 839.365 74.49C838.939 74.49 838.522 74.6067 838.115 74.84C837.715 75.0667 837.385 75.3967 837.125 75.83C836.865 76.2633 836.735 76.7833 836.735 77.39C836.735 77.9967 836.865 78.52 837.125 78.96C837.385 79.3933 837.715 79.7267 838.115 79.96C838.522 80.1867 838.939 80.3 839.365 80.3ZM848.816 73.29H850.916L846.676 77.2L851.196 81.5H849.066L845.256 77.86V81.5H843.516V67.74H845.256V76.54L848.816 73.29ZM858.619 81.5V79.9C858.565 80.0667 858.409 80.2967 858.149 80.59C857.895 80.8833 857.545 81.15 857.099 81.39C856.659 81.6233 856.139 81.74 855.539 81.74C854.779 81.74 854.089 81.56 853.469 81.2C852.855 80.84 852.365 80.3367 851.999 79.69C851.639 79.0367 851.459 78.2733 851.459 77.4C851.459 76.5267 851.639 75.7667 851.999 75.12C852.365 74.4667 852.855 73.96 853.469 73.6C854.089 73.2333 854.779 73.05 855.539 73.05C856.132 73.05 856.645 73.1567 857.079 73.37C857.519 73.5833 857.869 73.83 858.129 74.11C858.395 74.39 858.552 74.63 858.599 74.83V73.29H860.319V81.5H858.619ZM853.179 77.4C853.179 77.9933 853.309 78.5067 853.569 78.94C853.829 79.3733 854.165 79.71 854.579 79.95C854.999 80.1833 855.445 80.3 855.919 80.3C856.425 80.3 856.879 80.18 857.279 79.94C857.679 79.7 857.995 79.3633 858.229 78.93C858.462 78.49 858.579 77.98 858.579 77.4C858.579 76.82 858.462 76.3133 858.229 75.88C857.995 75.44 857.679 75.1 857.279 74.86C856.879 74.6133 856.425 74.49 855.919 74.49C855.445 74.49 854.999 74.61 854.579 74.85C854.165 75.09 853.829 75.4267 853.569 75.86C853.309 76.2933 853.179 76.8067 853.179 77.4ZM866.564 85.89C865.917 85.89 865.33 85.8233 864.804 85.69C864.284 85.5567 863.827 85.3667 863.434 85.12C863.047 84.88 862.737 84.5967 862.504 84.27L863.644 83.18C863.77 83.3533 863.94 83.5367 864.154 83.73C864.374 83.93 864.67 84.1 865.044 84.24C865.417 84.38 865.904 84.45 866.504 84.45C867.09 84.45 867.587 84.3233 867.994 84.07C868.4 83.8233 868.71 83.4867 868.924 83.06C869.137 82.6333 869.244 82.1533 869.244 81.62V81.35H870.944V81.73C870.944 82.6367 870.747 83.3967 870.354 84.01C869.967 84.63 869.444 85.0967 868.784 85.41C868.124 85.73 867.384 85.89 866.564 85.89ZM869.244 81.5V79.9C869.19 80.0667 869.034 80.2967 868.774 80.59C868.52 80.8833 868.17 81.15 867.724 81.39C867.284 81.6233 866.764 81.74 866.164 81.74C865.404 81.74 864.714 81.56 864.094 81.2C863.48 80.84 862.99 80.3367 862.624 79.69C862.264 79.0367 862.084 78.2733 862.084 77.4C862.084 76.5267 862.264 75.7667 862.624 75.12C862.99 74.4667 863.48 73.96 864.094 73.6C864.714 73.2333 865.404 73.05 866.164 73.05C866.757 73.05 867.27 73.1567 867.704 73.37C868.144 73.5833 868.494 73.83 868.754 74.11C869.02 74.39 869.177 74.63 869.224 74.83V73.29H870.944V81.5H869.244ZM863.804 77.4C863.804 77.9933 863.934 78.5067 864.194 78.94C864.454 79.3733 864.79 79.71 865.204 79.95C865.624 80.1833 866.07 80.3 866.544 80.3C867.05 80.3 867.504 80.18 867.904 79.94C868.304 79.7 868.62 79.3633 868.854 78.93C869.087 78.49 869.204 77.98 869.204 77.4C869.204 76.82 869.087 76.3133 868.854 75.88C868.62 75.44 868.304 75.1 867.904 74.86C867.504 74.6133 867.05 74.49 866.544 74.49C866.07 74.49 865.624 74.61 865.204 74.85C864.79 75.09 864.454 75.4267 864.194 75.86C863.934 76.2933 863.804 76.8067 863.804 77.4ZM874.437 77.75C874.444 78.2433 874.55 78.6933 874.757 79.1C874.964 79.5067 875.27 79.83 875.677 80.07C876.09 80.31 876.597 80.43 877.197 80.43C877.704 80.43 878.134 80.3567 878.487 80.21C878.847 80.0567 879.14 79.8767 879.367 79.67C879.594 79.4567 879.757 79.2667 879.857 79.1L880.707 80.15C880.487 80.47 880.217 80.75 879.897 80.99C879.584 81.23 879.2 81.4133 878.747 81.54C878.294 81.6733 877.74 81.74 877.087 81.74C876.207 81.74 875.444 81.5533 874.797 81.18C874.157 80.8 873.664 80.2767 873.317 79.61C872.97 78.9367 872.797 78.1667 872.797 77.3C872.797 76.5 872.96 75.78 873.287 75.14C873.614 74.4933 874.087 73.9833 874.707 73.61C875.334 73.2367 876.087 73.05 876.967 73.05C877.774 73.05 878.474 73.22 879.067 73.56C879.667 73.8933 880.13 74.3667 880.457 74.98C880.79 75.5933 880.957 76.3267 880.957 77.18C880.957 77.2333 880.954 77.33 880.947 77.47C880.94 77.6033 880.934 77.6967 880.927 77.75H874.437ZM879.297 76.44C879.29 76.1667 879.21 75.8667 879.057 75.54C878.91 75.2133 878.67 74.9333 878.337 74.7C878.004 74.4667 877.554 74.35 876.987 74.35C876.4 74.35 875.927 74.4633 875.567 74.69C875.214 74.9167 874.954 75.1933 874.787 75.52C874.62 75.84 874.524 76.1467 874.497 76.44H879.297ZM885.958 73.05C886.385 73.05 886.781 73.0933 887.148 73.18C887.521 73.2667 887.841 73.37 888.108 73.49C888.381 73.61 888.575 73.7167 888.688 73.81L887.998 74.91C887.865 74.79 887.625 74.6567 887.278 74.51C886.931 74.3567 886.545 74.28 886.118 74.28C885.651 74.28 885.255 74.3733 884.928 74.56C884.601 74.74 884.438 75.0033 884.438 75.35C884.438 75.6967 884.605 75.9733 884.938 76.18C885.278 76.38 885.731 76.5467 886.298 76.68C886.751 76.7867 887.175 76.93 887.568 77.11C887.968 77.29 888.291 77.54 888.538 77.86C888.785 78.1733 888.908 78.5933 888.908 79.12C888.908 79.6 888.808 80.01 888.608 80.35C888.408 80.6833 888.138 80.9533 887.798 81.16C887.458 81.36 887.078 81.5067 886.658 81.6C886.238 81.6933 885.811 81.74 885.378 81.74C884.871 81.74 884.415 81.6867 884.008 81.58C883.601 81.48 883.258 81.36 882.978 81.22C882.705 81.0733 882.505 80.9467 882.378 80.84L883.068 79.6C883.241 79.7667 883.525 79.9433 883.918 80.13C884.318 80.3167 884.771 80.41 885.278 80.41C885.838 80.41 886.291 80.2933 886.638 80.06C886.985 79.82 887.158 79.51 887.158 79.13C887.158 78.8433 887.075 78.6133 886.908 78.44C886.741 78.2667 886.518 78.1267 886.238 78.02C885.958 77.9133 885.651 77.82 885.318 77.74C884.998 77.6667 884.685 77.57 884.378 77.45C884.078 77.33 883.801 77.1767 883.548 76.99C883.301 76.7967 883.105 76.5633 882.958 76.29C882.811 76.01 882.738 75.6833 882.738 75.31C882.738 74.8367 882.888 74.4333 883.188 74.1C883.488 73.76 883.881 73.5 884.368 73.32C884.855 73.14 885.385 73.05 885.958 73.05Z" fill="#1C1F35"/>
<path d="M1025.9 94.5C1023.43 94.5 1021.32 94.2 1019.55 93.6C1017.78 93 1016.33 92.2333 1015.2 91.3C1014.07 90.3667 1013.22 89.35 1012.65 88.25C1012.08 87.1167 1011.78 86.0333 1011.75 85C1011.75 84.7 1011.85 84.45 1012.05 84.25C1012.25 84.05 1012.5 83.95 1012.8 83.95H1018.3C1018.67 83.95 1018.97 84.0333 1019.2 84.2C1019.43 84.3333 1019.65 84.5833 1019.85 84.95C1020.12 85.7167 1020.55 86.3333 1021.15 86.8C1021.75 87.2667 1022.45 87.6 1023.25 87.8C1024.08 87.9667 1024.97 88.05 1025.9 88.05C1027.77 88.05 1029.23 87.6167 1030.3 86.75C1031.37 85.8833 1031.9 84.6667 1031.9 83.1C1031.9 81.5 1031.4 80.35 1030.4 79.65C1029.4 78.95 1027.98 78.6 1026.15 78.6H1020.8C1020.47 78.6 1020.18 78.4833 1019.95 78.25C1019.72 78.0167 1019.6 77.7333 1019.6 77.4V74.95C1019.6 74.55 1019.67 74.2167 1019.8 73.95C1019.97 73.6833 1020.13 73.4833 1020.3 73.35L1028.9 65.45H1014.8C1014.43 65.45 1014.13 65.3333 1013.9 65.1C1013.67 64.8667 1013.55 64.5833 1013.55 64.25V60.25C1013.55 59.8833 1013.67 59.5833 1013.9 59.35C1014.13 59.1167 1014.43 59 1014.8 59H1037C1037.37 59 1037.67 59.1167 1037.9 59.35C1038.13 59.5833 1038.25 59.8833 1038.25 60.25V63.85C1038.25 64.2167 1038.18 64.5333 1038.05 64.8C1037.92 65.0333 1037.75 65.2167 1037.55 65.35L1029.4 73.4L1029.9 73.45C1031.87 73.65 1033.62 74.1333 1035.15 74.9C1036.68 75.6667 1037.88 76.7667 1038.75 78.2C1039.65 79.6 1040.1 81.3833 1040.1 83.55C1040.1 85.8167 1039.48 87.7667 1038.25 89.4C1037.02 91.0333 1035.33 92.3 1033.2 93.2C1031.07 94.0667 1028.63 94.5 1025.9 94.5ZM1057.83 94.55C1054.83 94.55 1052.31 94.0667 1050.28 93.1C1048.24 92.1333 1046.69 90.8667 1045.63 89.3C1044.59 87.7333 1044.04 86.0667 1043.98 84.3C1043.98 84 1044.08 83.75 1044.28 83.55C1044.48 83.35 1044.73 83.25 1045.03 83.25H1050.68C1051.08 83.25 1051.39 83.35 1051.63 83.55C1051.89 83.7167 1052.09 83.95 1052.23 84.25C1052.56 85.15 1052.99 85.8833 1053.53 86.45C1054.09 87.0167 1054.74 87.4333 1055.48 87.7C1056.21 87.9667 1056.99 88.1 1057.83 88.1C1058.89 88.1 1059.88 87.8833 1060.78 87.45C1061.68 86.9833 1062.39 86.3167 1062.93 85.45C1063.46 84.5833 1063.73 83.5167 1063.73 82.25C1063.73 81.15 1063.48 80.1833 1062.98 79.35C1062.48 78.5167 1061.78 77.8667 1060.88 77.4C1059.98 76.9333 1058.96 76.7 1057.83 76.7C1056.96 76.7 1056.24 76.8 1055.68 77C1055.14 77.2 1054.69 77.45 1054.33 77.75C1053.96 78.0167 1053.63 78.2667 1053.33 78.5C1053.03 78.7 1052.69 78.8 1052.33 78.8H1046.78C1046.48 78.8 1046.21 78.7 1045.98 78.5C1045.78 78.2667 1045.68 78 1045.68 77.7L1047.43 60.45C1047.49 59.9833 1047.66 59.6333 1047.93 59.4C1048.23 59.1333 1048.58 59 1048.98 59H1068.38C1068.74 59 1069.04 59.1167 1069.28 59.35C1069.51 59.5833 1069.63 59.8833 1069.63 60.25V64.25C1069.63 64.5833 1069.51 64.8667 1069.28 65.1C1069.04 65.3333 1068.74 65.45 1068.38 65.45H1053.93L1053.18 72.8C1053.84 72.3667 1054.66 71.9833 1055.63 71.65C1056.63 71.2833 1058.01 71.1 1059.78 71.1C1061.38 71.1 1062.89 71.3667 1064.33 71.9C1065.79 72.4 1067.09 73.15 1068.23 74.15C1069.36 75.15 1070.24 76.35 1070.88 77.75C1071.54 79.1167 1071.88 80.6833 1071.88 82.45C1071.88 84.85 1071.31 86.9667 1070.18 88.8C1069.04 90.6 1067.43 92.0167 1065.33 93.05C1063.23 94.05 1060.73 94.55 1057.83 94.55ZM1082.72 94C1082.42 94 1082.17 93.9 1081.97 93.7C1081.77 93.4667 1081.67 93.2 1081.67 92.9C1081.67 92.7333 1081.69 92.6 1081.72 92.5C1081.79 92.4 1081.84 92.3167 1081.87 92.25L1089.12 82.35C1088.52 82.4833 1087.92 82.5333 1087.32 82.5C1085.72 82.4333 1084.2 82.1167 1082.77 81.55C1081.34 80.95 1080.05 80.1333 1078.92 79.1C1077.79 78.0667 1076.9 76.85 1076.27 75.45C1075.64 74.05 1075.32 72.5 1075.32 70.8C1075.32 69.2667 1075.6 67.7667 1076.17 66.3C1076.77 64.8333 1077.65 63.5167 1078.82 62.35C1079.99 61.1833 1081.44 60.25 1083.17 59.55C1084.9 58.85 1086.92 58.5 1089.22 58.5C1091.52 58.5 1093.54 58.8167 1095.27 59.45C1097.04 60.0833 1098.52 60.9667 1099.72 62.1C1100.92 63.2 1101.82 64.4833 1102.42 65.95C1103.02 67.3833 1103.32 68.9167 1103.32 70.55C1103.32 72.0167 1103.07 73.3833 1102.57 74.65C1102.07 75.9167 1101.45 77.1 1100.72 78.2C1099.99 79.3 1099.25 80.3667 1098.52 81.4L1090.12 93C1089.99 93.1667 1089.79 93.3833 1089.52 93.65C1089.25 93.8833 1088.87 94 1088.37 94H1082.72ZM1089.27 76.6C1090.37 76.6 1091.37 76.3667 1092.27 75.9C1093.17 75.4333 1093.87 74.7667 1094.37 73.9C1094.9 73.0333 1095.17 72 1095.17 70.8C1095.17 69.5667 1094.9 68.5167 1094.37 67.65C1093.87 66.7833 1093.17 66.1167 1092.27 65.65C1091.37 65.1833 1090.37 64.95 1089.27 64.95C1088.2 64.95 1087.22 65.1833 1086.32 65.65C1085.42 66.1167 1084.7 66.7833 1084.17 67.65C1083.67 68.5167 1083.42 69.5667 1083.42 70.8C1083.42 72 1083.67 73.0333 1084.17 73.9C1084.7 74.7667 1085.42 75.4333 1086.32 75.9C1087.22 76.3667 1088.2 76.6 1089.27 76.6ZM1124.38 94C1124.04 94 1123.76 93.8833 1123.53 93.65C1123.29 93.4167 1123.18 93.1167 1123.18 92.75V86.75H1107.43C1107.09 86.75 1106.81 86.6333 1106.58 86.4C1106.34 86.1667 1106.23 85.8667 1106.23 85.5V81.45C1106.23 81.2167 1106.28 80.9667 1106.38 80.7C1106.48 80.4333 1106.61 80.1833 1106.78 79.95L1121.43 59.85C1121.86 59.2833 1122.48 59 1123.28 59H1129.63C1129.96 59 1130.24 59.1167 1130.48 59.35C1130.71 59.5833 1130.83 59.8833 1130.83 60.25V80.1H1135.28C1135.68 80.1 1135.98 80.2167 1136.18 80.45C1136.41 80.6833 1136.53 80.9667 1136.53 81.3V85.5C1136.53 85.8667 1136.41 86.1667 1136.18 86.4C1135.94 86.6333 1135.66 86.75 1135.33 86.75H1130.83V92.75C1130.83 93.1167 1130.71 93.4167 1130.48 93.65C1130.24 93.8833 1129.96 94 1129.63 94H1124.38ZM1113.98 80.35H1123.33V67.2L1113.98 80.35Z" fill="#1C1F35"/>
<rect x="1150" y="68" width="17" height="17" fill="url(#paint3_linear_1_57)"/>
<path d="M1183.21 68.06C1183.97 68.06 1184.62 68.1467 1185.17 68.32C1185.72 68.4933 1186.16 68.6767 1186.47 68.87C1186.79 69.0633 1186.98 69.19 1187.04 69.25L1186.16 70.66C1186.06 70.5733 1185.88 70.45 1185.63 70.29C1185.38 70.1233 1185.06 69.9767 1184.68 69.85C1184.3 69.7167 1183.87 69.65 1183.38 69.65C1182.63 69.65 1182.03 69.8033 1181.59 70.11C1181.16 70.41 1180.94 70.8367 1180.94 71.39C1180.94 71.7633 1181.05 72.0933 1181.28 72.38C1181.51 72.66 1181.84 72.9167 1182.26 73.15C1182.68 73.3833 1183.17 73.6233 1183.73 73.87C1184.19 74.0633 1184.64 74.2833 1185.08 74.53C1185.53 74.7767 1185.93 75.0667 1186.29 75.4C1186.66 75.7333 1186.95 76.12 1187.16 76.56C1187.38 77 1187.49 77.5067 1187.49 78.08C1187.49 78.6467 1187.37 79.1567 1187.14 79.61C1186.91 80.0633 1186.59 80.45 1186.17 80.77C1185.76 81.0833 1185.27 81.3233 1184.72 81.49C1184.17 81.6567 1183.57 81.74 1182.93 81.74C1182.12 81.74 1181.39 81.64 1180.74 81.44C1180.09 81.24 1179.57 81.03 1179.17 80.81C1178.78 80.59 1178.55 80.4533 1178.49 80.4L1179.42 78.93C1179.5 78.9967 1179.65 79.0967 1179.86 79.23C1180.07 79.3567 1180.34 79.49 1180.65 79.63C1180.96 79.77 1181.32 79.89 1181.71 79.99C1182.1 80.0833 1182.52 80.13 1182.97 80.13C1183.86 80.13 1184.54 79.93 1185 79.53C1185.46 79.13 1185.69 78.6167 1185.69 77.99C1185.69 77.51 1185.54 77.0967 1185.25 76.75C1184.96 76.4033 1184.57 76.0933 1184.08 75.82C1183.59 75.5467 1183.06 75.2833 1182.47 75.03C1181.87 74.7567 1181.32 74.4567 1180.82 74.13C1180.32 73.8033 1179.92 73.4133 1179.61 72.96C1179.31 72.5 1179.16 71.9467 1179.16 71.3C1179.16 70.66 1179.34 70.0967 1179.7 69.61C1180.07 69.1233 1180.56 68.7433 1181.17 68.47C1181.79 68.1967 1182.47 68.06 1183.21 68.06ZM1196.22 81.5V79.9C1196.16 80.0667 1196.01 80.2967 1195.75 80.59C1195.49 80.8833 1195.14 81.15 1194.7 81.39C1194.26 81.6233 1193.74 81.74 1193.14 81.74C1192.38 81.74 1191.69 81.56 1191.07 81.2C1190.45 80.84 1189.96 80.3367 1189.6 79.69C1189.24 79.0367 1189.06 78.2733 1189.06 77.4C1189.06 76.5267 1189.24 75.7667 1189.6 75.12C1189.96 74.4667 1190.45 73.96 1191.07 73.6C1191.69 73.2333 1192.38 73.05 1193.14 73.05C1193.73 73.05 1194.24 73.1567 1194.68 73.37C1195.12 73.5833 1195.47 73.83 1195.73 74.11C1195.99 74.39 1196.15 74.63 1196.2 74.83V73.29H1197.92V81.5H1196.22ZM1190.78 77.4C1190.78 77.9933 1190.91 78.5067 1191.17 78.94C1191.43 79.3733 1191.76 79.71 1192.18 79.95C1192.6 80.1833 1193.04 80.3 1193.52 80.3C1194.02 80.3 1194.48 80.18 1194.88 79.94C1195.28 79.7 1195.59 79.3633 1195.83 78.93C1196.06 78.49 1196.18 77.98 1196.18 77.4C1196.18 76.82 1196.06 76.3133 1195.83 75.88C1195.59 75.44 1195.28 75.1 1194.88 74.86C1194.48 74.6133 1194.02 74.49 1193.52 74.49C1193.04 74.49 1192.6 74.61 1192.18 74.85C1191.76 75.09 1191.43 75.4267 1191.17 75.86C1190.91 76.2933 1190.78 76.8067 1190.78 77.4ZM1199.54 73.29H1201.15V69.92H1202.88V73.29H1204.99V74.78H1202.88V78.84C1202.88 79.32 1202.96 79.6733 1203.13 79.9C1203.3 80.1267 1203.53 80.24 1203.82 80.24C1204.07 80.24 1204.27 80.1933 1204.41 80.1C1204.55 80.0067 1204.63 79.9433 1204.66 79.91L1205.35 81.19C1205.31 81.2233 1205.2 81.2867 1205.03 81.38C1204.86 81.4733 1204.63 81.5567 1204.36 81.63C1204.09 81.7033 1203.77 81.74 1203.4 81.74C1202.76 81.74 1202.22 81.5467 1201.79 81.16C1201.36 80.7667 1201.15 80.1467 1201.15 79.3V74.78H1199.54V73.29ZM1207.05 81.5V73.29H1208.79V81.5H1207.05ZM1207.94 70.48C1207.63 70.48 1207.36 70.37 1207.13 70.15C1206.91 69.9233 1206.8 69.6533 1206.8 69.34C1206.8 69.0267 1206.91 68.7567 1207.13 68.53C1207.36 68.3033 1207.63 68.19 1207.94 68.19C1208.15 68.19 1208.34 68.2433 1208.51 68.35C1208.69 68.4567 1208.84 68.5967 1208.94 68.77C1209.05 68.9367 1209.1 69.1267 1209.1 69.34C1209.1 69.6533 1208.99 69.9233 1208.76 70.15C1208.54 70.37 1208.26 70.48 1207.94 70.48ZM1214.53 73.05C1214.96 73.05 1215.36 73.0933 1215.72 73.18C1216.1 73.2667 1216.42 73.37 1216.68 73.49C1216.96 73.61 1217.15 73.7167 1217.26 73.81L1216.57 74.91C1216.44 74.79 1216.2 74.6567 1215.85 74.51C1215.51 74.3567 1215.12 74.28 1214.69 74.28C1214.23 74.28 1213.83 74.3733 1213.5 74.56C1213.18 74.74 1213.01 75.0033 1213.01 75.35C1213.01 75.6967 1213.18 75.9733 1213.51 76.18C1213.85 76.38 1214.31 76.5467 1214.87 76.68C1215.33 76.7867 1215.75 76.93 1216.14 77.11C1216.54 77.29 1216.87 77.54 1217.11 77.86C1217.36 78.1733 1217.48 78.5933 1217.48 79.12C1217.48 79.6 1217.38 80.01 1217.18 80.35C1216.98 80.6833 1216.71 80.9533 1216.37 81.16C1216.03 81.36 1215.65 81.5067 1215.23 81.6C1214.81 81.6933 1214.39 81.74 1213.95 81.74C1213.45 81.74 1212.99 81.6867 1212.58 81.58C1212.18 81.48 1211.83 81.36 1211.55 81.22C1211.28 81.0733 1211.08 80.9467 1210.95 80.84L1211.64 79.6C1211.82 79.7667 1212.1 79.9433 1212.49 80.13C1212.89 80.3167 1213.35 80.41 1213.85 80.41C1214.41 80.41 1214.87 80.2933 1215.21 80.06C1215.56 79.82 1215.73 79.51 1215.73 79.13C1215.73 78.8433 1215.65 78.6133 1215.48 78.44C1215.32 78.2667 1215.09 78.1267 1214.81 78.02C1214.53 77.9133 1214.23 77.82 1213.89 77.74C1213.57 77.6667 1213.26 77.57 1212.95 77.45C1212.65 77.33 1212.38 77.1767 1212.12 76.99C1211.88 76.7967 1211.68 76.5633 1211.53 76.29C1211.39 76.01 1211.31 75.6833 1211.31 75.31C1211.31 74.8367 1211.46 74.4333 1211.76 74.1C1212.06 73.76 1212.46 73.5 1212.94 73.32C1213.43 73.14 1213.96 73.05 1214.53 73.05ZM1218.73 73.29H1220.41V70.96C1220.41 70.1267 1220.55 69.4567 1220.84 68.95C1221.13 68.4433 1221.5 68.0767 1221.95 67.85C1222.4 67.6167 1222.87 67.5 1223.34 67.5C1223.91 67.5 1224.35 67.58 1224.66 67.74C1224.97 67.9 1225.16 68.0067 1225.22 68.06L1224.52 69.39C1224.49 69.35 1224.38 69.2767 1224.21 69.17C1224.04 69.0633 1223.8 69.01 1223.5 69.01C1223.28 69.01 1223.07 69.0633 1222.86 69.17C1222.65 69.2767 1222.48 69.4833 1222.34 69.79C1222.2 70.0967 1222.13 70.5533 1222.13 71.16V73.29H1224.47V74.78H1222.13V81.5H1220.41V74.78H1218.73V73.29ZM1226.23 81.5V73.29H1227.97V81.5H1226.23ZM1227.12 70.48C1226.81 70.48 1226.54 70.37 1226.31 70.15C1226.09 69.9233 1225.98 69.6533 1225.98 69.34C1225.98 69.0267 1226.09 68.7567 1226.31 68.53C1226.54 68.3033 1226.81 68.19 1227.12 68.19C1227.33 68.19 1227.52 68.2433 1227.69 68.35C1227.87 68.4567 1228.01 68.5967 1228.12 68.77C1228.23 68.9367 1228.28 69.1267 1228.28 69.34C1228.28 69.6533 1228.17 69.9233 1227.94 70.15C1227.71 70.37 1227.44 70.48 1227.12 70.48ZM1231.72 77.75C1231.73 78.2433 1231.84 78.6933 1232.04 79.1C1232.25 79.5067 1232.56 79.83 1232.96 80.07C1233.38 80.31 1233.88 80.43 1234.48 80.43C1234.99 80.43 1235.42 80.3567 1235.77 80.21C1236.13 80.0567 1236.43 79.8767 1236.65 79.67C1236.88 79.4567 1237.04 79.2667 1237.14 79.1L1237.99 80.15C1237.77 80.47 1237.5 80.75 1237.18 80.99C1236.87 81.23 1236.49 81.4133 1236.03 81.54C1235.58 81.6733 1235.03 81.74 1234.37 81.74C1233.49 81.74 1232.73 81.5533 1232.08 81.18C1231.44 80.8 1230.95 80.2767 1230.6 79.61C1230.26 78.9367 1230.08 78.1667 1230.08 77.3C1230.08 76.5 1230.25 75.78 1230.57 75.14C1230.9 74.4933 1231.37 73.9833 1231.99 73.61C1232.62 73.2367 1233.37 73.05 1234.25 73.05C1235.06 73.05 1235.76 73.22 1236.35 73.56C1236.95 73.8933 1237.42 74.3667 1237.74 74.98C1238.08 75.5933 1238.24 76.3267 1238.24 77.18C1238.24 77.2333 1238.24 77.33 1238.23 77.47C1238.23 77.6033 1238.22 77.6967 1238.21 77.75H1231.72ZM1236.58 76.44C1236.58 76.1667 1236.5 75.8667 1236.34 75.54C1236.2 75.2133 1235.96 74.9333 1235.62 74.7C1235.29 74.4667 1234.84 74.35 1234.27 74.35C1233.69 74.35 1233.21 74.4633 1232.85 74.69C1232.5 74.9167 1232.24 75.1933 1232.07 75.52C1231.91 75.84 1231.81 76.1467 1231.78 76.44H1236.58ZM1243.78 81.74C1243.03 81.74 1242.35 81.56 1241.75 81.2C1241.16 80.84 1240.69 80.3367 1240.34 79.69C1240 79.0367 1239.83 78.2733 1239.83 77.4C1239.83 76.5267 1240 75.7667 1240.34 75.12C1240.69 74.4667 1241.16 73.96 1241.75 73.6C1242.35 73.2333 1243.03 73.05 1243.78 73.05C1244.39 73.05 1244.92 73.1567 1245.38 73.37C1245.84 73.5767 1246.21 73.82 1246.48 74.1C1246.76 74.38 1246.91 74.6233 1246.95 74.83V67.74H1248.7V81.5H1246.98V79.9C1246.91 80.1267 1246.73 80.3833 1246.43 80.67C1246.15 80.9567 1245.78 81.2067 1245.32 81.42C1244.87 81.6333 1244.36 81.74 1243.78 81.74ZM1244.18 80.3C1244.69 80.3 1245.15 80.18 1245.57 79.94C1245.99 79.7 1246.33 79.3633 1246.57 78.93C1246.83 78.49 1246.95 77.98 1246.95 77.4C1246.95 76.82 1246.83 76.3133 1246.57 75.88C1246.33 75.44 1245.99 75.1 1245.57 74.86C1245.15 74.6133 1244.69 74.49 1244.18 74.49C1243.72 74.49 1243.28 74.61 1242.88 74.85C1242.48 75.09 1242.16 75.4267 1241.91 75.86C1241.67 76.2933 1241.55 76.8067 1241.55 77.4C1241.55 77.9933 1241.67 78.5067 1241.91 78.94C1242.16 79.3733 1242.48 79.71 1242.88 79.95C1243.28 80.1833 1243.72 80.3 1244.18 80.3ZM1262.09 80.05C1262.91 80.05 1263.62 79.9367 1264.22 79.71C1264.83 79.4833 1265.26 79.2633 1265.51 79.05L1266.26 80.52C1265.96 80.7867 1265.44 81.0567 1264.69 81.33C1263.95 81.6033 1263.06 81.74 1262.02 81.74C1261.05 81.74 1260.15 81.5667 1259.31 81.22C1258.48 80.8733 1257.75 80.39 1257.12 79.77C1256.5 79.15 1256.02 78.4267 1255.66 77.6C1255.32 76.7733 1255.14 75.88 1255.14 74.92C1255.14 73.96 1255.32 73.0633 1255.66 72.23C1256.01 71.3967 1256.49 70.67 1257.11 70.05C1257.74 69.4233 1258.47 68.9367 1259.3 68.59C1260.14 68.2367 1261.05 68.06 1262.02 68.06C1263.06 68.06 1263.95 68.1967 1264.69 68.47C1265.44 68.7433 1265.96 69.0133 1266.26 69.28L1265.51 70.75C1265.26 70.53 1264.83 70.31 1264.22 70.09C1263.62 69.8633 1262.91 69.75 1262.09 69.75C1261.35 69.75 1260.66 69.8767 1260.04 70.13C1259.42 70.3833 1258.88 70.7433 1258.42 71.21C1257.97 71.67 1257.62 72.2133 1257.36 72.84C1257.12 73.4667 1256.99 74.15 1256.99 74.89C1256.99 75.6367 1257.12 76.3267 1257.36 76.96C1257.62 77.5867 1257.97 78.1333 1258.42 78.6C1258.88 79.06 1259.42 79.4167 1260.04 79.67C1260.66 79.9233 1261.35 80.05 1262.09 80.05ZM1270.08 81.5H1268.33V67.74H1270.08V81.5ZM1272.78 81.5V73.29H1274.52V81.5H1272.78ZM1273.67 70.48C1273.35 70.48 1273.08 70.37 1272.86 70.15C1272.64 69.9233 1272.53 69.6533 1272.53 69.34C1272.53 69.0267 1272.64 68.7567 1272.86 68.53C1273.08 68.3033 1273.35 68.19 1273.67 68.19C1273.87 68.19 1274.06 68.2433 1274.24 68.35C1274.42 68.4567 1274.56 68.5967 1274.67 68.77C1274.77 68.9367 1274.83 69.1267 1274.83 69.34C1274.83 69.6533 1274.71 69.9233 1274.49 70.15C1274.26 70.37 1273.99 70.48 1273.67 70.48ZM1278.27 77.75C1278.27 78.2433 1278.38 78.6933 1278.59 79.1C1278.79 79.5067 1279.1 79.83 1279.51 80.07C1279.92 80.31 1280.43 80.43 1281.03 80.43C1281.53 80.43 1281.96 80.3567 1282.32 80.21C1282.68 80.0567 1282.97 79.8767 1283.2 79.67C1283.42 79.4567 1283.59 79.2667 1283.69 79.1L1284.54 80.15C1284.32 80.47 1284.05 80.75 1283.73 80.99C1283.41 81.23 1283.03 81.4133 1282.58 81.54C1282.12 81.6733 1281.57 81.74 1280.92 81.74C1280.04 81.74 1279.27 81.5533 1278.62 81.18C1277.99 80.8 1277.49 80.2767 1277.15 79.61C1276.8 78.9367 1276.63 78.1667 1276.63 77.3C1276.63 76.5 1276.79 75.78 1277.12 75.14C1277.44 74.4933 1277.92 73.9833 1278.54 73.61C1279.16 73.2367 1279.92 73.05 1280.8 73.05C1281.6 73.05 1282.3 73.22 1282.9 73.56C1283.5 73.8933 1283.96 74.3667 1284.29 74.98C1284.62 75.5933 1284.79 76.3267 1284.79 77.18C1284.79 77.2333 1284.78 77.33 1284.78 77.47C1284.77 77.6033 1284.76 77.6967 1284.76 77.75H1278.27ZM1283.13 76.44C1283.12 76.1667 1283.04 75.8667 1282.89 75.54C1282.74 75.2133 1282.5 74.9333 1282.17 74.7C1281.83 74.4667 1281.38 74.35 1280.82 74.35C1280.23 74.35 1279.76 74.4633 1279.4 74.69C1279.04 74.9167 1278.78 75.1933 1278.62 75.52C1278.45 75.84 1278.35 76.1467 1278.33 76.44H1283.13ZM1291.3 73.05C1291.84 73.05 1292.36 73.1633 1292.87 73.39C1293.38 73.6167 1293.8 73.9767 1294.13 74.47C1294.46 74.9567 1294.63 75.5933 1294.63 76.38V81.5H1292.87V76.72C1292.87 75.9067 1292.68 75.3167 1292.3 74.95C1291.92 74.5767 1291.43 74.39 1290.83 74.39C1290.43 74.39 1290.05 74.5033 1289.69 74.73C1289.33 74.95 1289.03 75.2567 1288.8 75.65C1288.56 76.0367 1288.45 76.4767 1288.45 76.97V81.5H1286.71V73.29H1288.45V74.75C1288.51 74.5233 1288.67 74.2767 1288.94 74.01C1289.2 73.7433 1289.54 73.5167 1289.96 73.33C1290.37 73.1433 1290.82 73.05 1291.3 73.05ZM1296.2 73.29H1297.81V69.92H1299.54V73.29H1301.65V74.78H1299.54V78.84C1299.54 79.32 1299.62 79.6733 1299.79 79.9C1299.96 80.1267 1300.19 80.24 1300.48 80.24C1300.73 80.24 1300.93 80.1933 1301.07 80.1C1301.21 80.0067 1301.29 79.9433 1301.32 79.91L1302.01 81.19C1301.97 81.2233 1301.86 81.2867 1301.69 81.38C1301.52 81.4733 1301.29 81.5567 1301.02 81.63C1300.75 81.7033 1300.43 81.74 1300.06 81.74C1299.42 81.74 1298.88 81.5467 1298.45 81.16C1298.02 80.7667 1297.81 80.1467 1297.81 79.3V74.78H1296.2V73.29ZM1306.6 73.05C1307.03 73.05 1307.43 73.0933 1307.79 73.18C1308.17 73.2667 1308.49 73.37 1308.75 73.49C1309.03 73.61 1309.22 73.7167 1309.33 73.81L1308.64 74.91C1308.51 74.79 1308.27 74.6567 1307.92 74.51C1307.58 74.3567 1307.19 74.28 1306.76 74.28C1306.3 74.28 1305.9 74.3733 1305.57 74.56C1305.25 74.74 1305.08 75.0033 1305.08 75.35C1305.08 75.6967 1305.25 75.9733 1305.58 76.18C1305.92 76.38 1306.38 76.5467 1306.94 76.68C1307.4 76.7867 1307.82 76.93 1308.21 77.11C1308.61 77.29 1308.94 77.54 1309.18 77.86C1309.43 78.1733 1309.55 78.5933 1309.55 79.12C1309.55 79.6 1309.45 80.01 1309.25 80.35C1309.05 80.6833 1308.78 80.9533 1308.44 81.16C1308.1 81.36 1307.72 81.5067 1307.3 81.6C1306.88 81.6933 1306.46 81.74 1306.02 81.74C1305.52 81.74 1305.06 81.6867 1304.65 81.58C1304.25 81.48 1303.9 81.36 1303.62 81.22C1303.35 81.0733 1303.15 80.9467 1303.02 80.84L1303.71 79.6C1303.89 79.7667 1304.17 79.9433 1304.56 80.13C1304.96 80.3167 1305.42 80.41 1305.92 80.41C1306.48 80.41 1306.94 80.2933 1307.28 80.06C1307.63 79.82 1307.8 79.51 1307.8 79.13C1307.8 78.8433 1307.72 78.6133 1307.55 78.44C1307.39 78.2667 1307.16 78.1267 1306.88 78.02C1306.6 77.9133 1306.3 77.82 1305.96 77.74C1305.64 77.6667 1305.33 77.57 1305.02 77.45C1304.72 77.33 1304.45 77.1767 1304.19 76.99C1303.95 76.7967 1303.75 76.5633 1303.6 76.29C1303.46 76.01 1303.38 75.6833 1303.38 75.31C1303.38 74.8367 1303.53 74.4333 1303.83 74.1C1304.13 73.76 1304.53 73.5 1305.01 73.32C1305.5 73.14 1306.03 73.05 1306.6 73.05Z" fill="#1C1F35"/>
<path d="M1449.7 94C1449.33 94 1449.03 93.8833 1448.8 93.65C1448.56 93.4167 1448.45 93.1167 1448.45 92.75V89.75C1448.45 89.4833 1448.51 89.1333 1448.65 88.7C1448.81 88.2333 1449.16 87.7833 1449.7 87.35L1456.3 80.8C1458.73 78.9333 1460.7 77.35 1462.2 76.05C1463.73 74.75 1464.86 73.5667 1465.6 72.5C1466.33 71.4333 1466.7 70.4 1466.7 69.4C1466.7 68.1 1466.33 67.0333 1465.6 66.2C1464.9 65.3333 1463.75 64.9 1462.15 64.9C1461.08 64.9 1460.18 65.1333 1459.45 65.6C1458.75 66.0333 1458.2 66.6167 1457.8 67.35C1457.4 68.0833 1457.13 68.8833 1457 69.75C1456.9 70.1833 1456.68 70.4833 1456.35 70.65C1456.05 70.8167 1455.73 70.9 1455.4 70.9H1450.1C1449.76 70.9 1449.5 70.8 1449.3 70.6C1449.1 70.3667 1449 70.1167 1449 69.85C1449.03 68.3167 1449.35 66.8667 1449.95 65.5C1450.58 64.1333 1451.46 62.9167 1452.6 61.85C1453.73 60.7833 1455.1 59.95 1456.7 59.35C1458.3 58.7167 1460.11 58.4 1462.15 58.4C1464.95 58.4 1467.3 58.8667 1469.2 59.8C1471.1 60.7 1472.53 61.95 1473.5 63.55C1474.46 65.15 1474.95 67 1474.95 69.1C1474.95 70.7 1474.61 72.1833 1473.95 73.55C1473.31 74.9167 1472.38 76.2333 1471.15 77.5C1469.91 78.7333 1468.45 80.0167 1466.75 81.35L1460.85 87.25H1474.45C1474.81 87.25 1475.11 87.3667 1475.35 87.6C1475.58 87.8333 1475.7 88.1333 1475.7 88.5V92.75C1475.7 93.1167 1475.58 93.4167 1475.35 93.65C1475.11 93.8833 1474.81 94 1474.45 94H1449.7ZM1497.29 94C1496.96 94 1496.68 93.8833 1496.44 93.65C1496.21 93.4167 1496.09 93.1167 1496.09 92.75V86.75H1480.34C1480.01 86.75 1479.73 86.6333 1479.49 86.4C1479.26 86.1667 1479.14 85.8667 1479.14 85.5V81.45C1479.14 81.2167 1479.19 80.9667 1479.29 80.7C1479.39 80.4333 1479.53 80.1833 1479.69 79.95L1494.34 59.85C1494.78 59.2833 1495.39 59 1496.19 59H1502.54C1502.88 59 1503.16 59.1167 1503.39 59.35C1503.63 59.5833 1503.74 59.8833 1503.74 60.25V80.1H1508.19C1508.59 80.1 1508.89 80.2167 1509.09 80.45C1509.33 80.6833 1509.44 80.9667 1509.44 81.3V85.5C1509.44 85.8667 1509.33 86.1667 1509.09 86.4C1508.86 86.6333 1508.58 86.75 1508.24 86.75H1503.74V92.75C1503.74 93.1167 1503.63 93.4167 1503.39 93.65C1503.16 93.8833 1502.88 94 1502.54 94H1497.29ZM1486.89 80.35H1496.24V67.2L1486.89 80.35ZM1517.07 94C1516.77 94 1516.52 93.9 1516.32 93.7C1516.12 93.4667 1516.02 93.2 1516.02 92.9C1516.02 92.7667 1516.05 92.6167 1516.12 92.45L1527.92 65.7H1512.57C1512.24 65.7 1511.94 65.5833 1511.67 65.35C1511.44 65.1167 1511.32 64.8333 1511.32 64.5V60.25C1511.32 59.8833 1511.44 59.5833 1511.67 59.35C1511.94 59.1167 1512.24 59 1512.57 59H1535.22C1535.62 59 1535.92 59.1167 1536.12 59.35C1536.35 59.5833 1536.47 59.8833 1536.47 60.25V64C1536.47 64.5 1536.42 64.9167 1536.32 65.25C1536.25 65.55 1536.14 65.8667 1535.97 66.2L1524.22 92.8C1524.12 93 1523.94 93.25 1523.67 93.55C1523.44 93.85 1523.05 94 1522.52 94H1517.07ZM1549.98 92.35C1549.62 92.35 1549.32 92.2333 1549.08 92C1548.85 91.7667 1548.73 91.4667 1548.73 91.1V81.65H1539.48C1539.12 81.65 1538.82 81.5333 1538.58 81.3C1538.35 81.0667 1538.23 80.7833 1538.23 80.45V77.3C1538.23 76.9333 1538.35 76.6333 1538.58 76.4C1538.82 76.1667 1539.12 76.05 1539.48 76.05H1548.73V66.9C1548.73 66.5333 1548.85 66.2333 1549.08 66C1549.32 65.7667 1549.62 65.65 1549.98 65.65H1553.43C1553.8 65.65 1554.1 65.7667 1554.33 66C1554.57 66.2333 1554.68 66.5333 1554.68 66.9V76.05H1563.93C1564.27 76.05 1564.55 76.1667 1564.78 76.4C1565.02 76.6333 1565.13 76.9333 1565.13 77.3V80.45C1565.13 80.7833 1565.02 81.0667 1564.78 81.3C1564.55 81.5333 1564.27 81.65 1563.93 81.65H1554.68V91.1C1554.68 91.4667 1554.57 91.7667 1554.33 92C1554.1 92.2333 1553.8 92.35 1553.43 92.35H1549.98Z" fill="#1C1F35"/>
<rect x="1578" y="68" width="17" height="17" fill="url(#paint4_linear_1_57)"/>
<path d="M1608.22 74.89C1608.22 75.87 1608.42 76.7533 1608.83 77.54C1609.24 78.3267 1609.81 78.9533 1610.53 79.42C1611.25 79.88 1612.08 80.11 1613.01 80.11C1613.95 80.11 1614.78 79.88 1615.49 79.42C1616.21 78.9533 1616.77 78.3267 1617.18 77.54C1617.59 76.7533 1617.79 75.87 1617.79 74.89C1617.79 73.91 1617.59 73.03 1617.18 72.25C1616.77 71.4633 1616.21 70.84 1615.49 70.38C1614.78 69.92 1613.95 69.69 1613.01 69.69C1612.08 69.69 1611.25 69.92 1610.53 70.38C1609.81 70.84 1609.24 71.4633 1608.83 72.25C1608.42 73.03 1608.22 73.91 1608.22 74.89ZM1606.45 74.89C1606.45 73.93 1606.61 73.0367 1606.94 72.21C1607.27 71.3767 1607.74 70.65 1608.33 70.03C1608.92 69.41 1609.62 68.9267 1610.41 68.58C1611.21 68.2333 1612.08 68.06 1613.01 68.06C1613.95 68.06 1614.82 68.2333 1615.61 68.58C1616.41 68.9267 1617.1 69.41 1617.69 70.03C1618.28 70.65 1618.74 71.3767 1619.07 72.21C1619.4 73.0367 1619.56 73.93 1619.56 74.89C1619.56 75.8567 1619.4 76.7567 1619.07 77.59C1618.75 78.4167 1618.29 79.1433 1617.7 79.77C1617.11 80.39 1616.42 80.8733 1615.63 81.22C1614.84 81.5667 1613.96 81.74 1613.01 81.74C1612.06 81.74 1611.18 81.5667 1610.37 81.22C1609.57 80.8733 1608.88 80.39 1608.29 79.77C1607.7 79.1433 1607.25 78.4167 1606.93 77.59C1606.61 76.7567 1606.45 75.8567 1606.45 74.89ZM1626.91 75.35L1624.82 81.5H1623.02L1620.79 73.29H1622.64L1624.13 79.6L1626.19 73.45H1627.63L1629.67 79.6L1631.17 73.29H1633.03L1630.8 81.5H1629L1626.91 75.35ZM1639.34 73.05C1639.88 73.05 1640.4 73.1633 1640.91 73.39C1641.42 73.6167 1641.84 73.9767 1642.17 74.47C1642.5 74.9567 1642.67 75.5933 1642.67 76.38V81.5H1640.91V76.72C1640.91 75.9067 1640.72 75.3167 1640.34 74.95C1639.96 74.5767 1639.47 74.39 1638.87 74.39C1638.47 74.39 1638.09 74.5033 1637.73 74.73C1637.37 74.95 1637.07 75.2567 1636.84 75.65C1636.6 76.0367 1636.49 76.4767 1636.49 76.97V81.5H1634.75V73.29H1636.49V74.75C1636.55 74.5233 1636.71 74.2767 1636.98 74.01C1637.24 73.7433 1637.58 73.5167 1638 73.33C1638.41 73.1433 1638.86 73.05 1639.34 73.05ZM1646.03 77.75C1646.04 78.2433 1646.14 78.6933 1646.35 79.1C1646.56 79.5067 1646.86 79.83 1647.27 80.07C1647.68 80.31 1648.19 80.43 1648.79 80.43C1649.3 80.43 1649.73 80.3567 1650.08 80.21C1650.44 80.0567 1650.73 79.8767 1650.96 79.67C1651.19 79.4567 1651.35 79.2667 1651.45 79.1L1652.3 80.15C1652.08 80.47 1651.81 80.75 1651.49 80.99C1651.18 81.23 1650.79 81.4133 1650.34 81.54C1649.89 81.6733 1649.33 81.74 1648.68 81.74C1647.8 81.74 1647.04 81.5533 1646.39 81.18C1645.75 80.8 1645.26 80.2767 1644.91 79.61C1644.56 78.9367 1644.39 78.1667 1644.39 77.3C1644.39 76.5 1644.55 75.78 1644.88 75.14C1645.21 74.4933 1645.68 73.9833 1646.3 73.61C1646.93 73.2367 1647.68 73.05 1648.56 73.05C1649.37 73.05 1650.07 73.22 1650.66 73.56C1651.26 73.8933 1651.72 74.3667 1652.05 74.98C1652.38 75.5933 1652.55 76.3267 1652.55 77.18C1652.55 77.2333 1652.55 77.33 1652.54 77.47C1652.53 77.6033 1652.53 77.6967 1652.52 77.75H1646.03ZM1650.89 76.44C1650.88 76.1667 1650.8 75.8667 1650.65 75.54C1650.5 75.2133 1650.26 74.9333 1649.93 74.7C1649.6 74.4667 1649.15 74.35 1648.58 74.35C1647.99 74.35 1647.52 74.4633 1647.16 74.69C1646.81 74.9167 1646.55 75.1933 1646.38 75.52C1646.21 75.84 1646.12 76.1467 1646.09 76.44H1650.89ZM1658.09 81.74C1657.34 81.74 1656.66 81.56 1656.06 81.2C1655.47 80.84 1655 80.3367 1654.65 79.69C1654.31 79.0367 1654.14 78.2733 1654.14 77.4C1654.14 76.5267 1654.31 75.7667 1654.65 75.12C1655 74.4667 1655.47 73.96 1656.06 73.6C1656.66 73.2333 1657.34 73.05 1658.09 73.05C1658.7 73.05 1659.23 73.1567 1659.69 73.37C1660.15 73.5767 1660.52 73.82 1660.79 74.1C1661.07 74.38 1661.22 74.6233 1661.26 74.83V67.74H1663.01V81.5H1661.29V79.9C1661.22 80.1267 1661.04 80.3833 1660.74 80.67C1660.46 80.9567 1660.09 81.2067 1659.63 81.42C1659.18 81.6333 1658.67 81.74 1658.09 81.74ZM1658.49 80.3C1659 80.3 1659.46 80.18 1659.88 79.94C1660.3 79.7 1660.64 79.3633 1660.88 78.93C1661.14 78.49 1661.26 77.98 1661.26 77.4C1661.26 76.82 1661.14 76.3133 1660.88 75.88C1660.64 75.44 1660.3 75.1 1659.88 74.86C1659.46 74.6133 1659 74.49 1658.49 74.49C1658.03 74.49 1657.59 74.61 1657.19 74.85C1656.79 75.09 1656.47 75.4267 1656.22 75.86C1655.98 76.2933 1655.86 76.8067 1655.86 77.4C1655.86 77.9933 1655.98 78.5067 1656.22 78.94C1656.47 79.3733 1656.79 79.71 1657.19 79.95C1657.59 80.1833 1658.03 80.3 1658.49 80.3ZM1675.91 81.5H1673.89L1669.06 68.3H1670.99L1674.9 79.42L1678.83 68.3H1680.75L1675.91 81.5ZM1682.24 77.75C1682.25 78.2433 1682.35 78.6933 1682.56 79.1C1682.77 79.5067 1683.07 79.83 1683.48 80.07C1683.89 80.31 1684.4 80.43 1685 80.43C1685.51 80.43 1685.94 80.3567 1686.29 80.21C1686.65 80.0567 1686.94 79.8767 1687.17 79.67C1687.4 79.4567 1687.56 79.2667 1687.66 79.1L1688.51 80.15C1688.29 80.47 1688.02 80.75 1687.7 80.99C1687.39 81.23 1687 81.4133 1686.55 81.54C1686.1 81.6733 1685.54 81.74 1684.89 81.74C1684.01 81.74 1683.25 81.5533 1682.6 81.18C1681.96 80.8 1681.47 80.2767 1681.12 79.61C1680.77 78.9367 1680.6 78.1667 1680.6 77.3C1680.6 76.5 1680.76 75.78 1681.09 75.14C1681.42 74.4933 1681.89 73.9833 1682.51 73.61C1683.14 73.2367 1683.89 73.05 1684.77 73.05C1685.58 73.05 1686.28 73.22 1686.87 73.56C1687.47 73.8933 1687.93 74.3667 1688.26 74.98C1688.59 75.5933 1688.76 76.3267 1688.76 77.18C1688.76 77.2333 1688.76 77.33 1688.75 77.47C1688.74 77.6033 1688.74 77.6967 1688.73 77.75H1682.24ZM1687.1 76.44C1687.09 76.1667 1687.01 75.8667 1686.86 75.54C1686.71 75.2133 1686.47 74.9333 1686.14 74.7C1685.81 74.4667 1685.36 74.35 1684.79 74.35C1684.2 74.35 1683.73 74.4633 1683.37 74.69C1683.02 74.9167 1682.76 75.1933 1682.59 75.52C1682.42 75.84 1682.33 76.1467 1682.3 76.44H1687.1ZM1695.33 73.05C1695.87 73.05 1696.4 73.1633 1696.9 73.39C1697.42 73.6167 1697.84 73.9767 1698.16 74.47C1698.5 74.9567 1698.66 75.5933 1698.66 76.38V81.5H1696.9V76.72C1696.9 75.9067 1696.72 75.3167 1696.34 74.95C1695.98 74.5767 1695.49 74.39 1694.89 74.39C1694.49 74.39 1694.11 74.5033 1693.74 74.73C1693.38 74.95 1693.07 75.2567 1692.83 75.65C1692.6 76.0367 1692.48 76.4767 1692.48 76.97V81.5H1690.72V67.74H1692.48V74.75C1692.54 74.5233 1692.7 74.2767 1692.96 74.01C1693.23 73.7433 1693.57 73.5167 1693.98 73.33C1694.4 73.1433 1694.85 73.05 1695.33 73.05ZM1701.2 81.5V73.29H1702.94V81.5H1701.2ZM1702.09 70.48C1701.78 70.48 1701.51 70.37 1701.28 70.15C1701.06 69.9233 1700.95 69.6533 1700.95 69.34C1700.95 69.0267 1701.06 68.7567 1701.28 68.53C1701.51 68.3033 1701.78 68.19 1702.09 68.19C1702.3 68.19 1702.49 68.2433 1702.66 68.35C1702.84 68.4567 1702.99 68.5967 1703.09 68.77C1703.2 68.9367 1703.25 69.1267 1703.25 69.34C1703.25 69.6533 1703.14 69.9233 1702.91 70.15C1702.69 70.37 1702.41 70.48 1702.09 70.48ZM1709.47 80.3C1709.99 80.3 1710.41 80.2167 1710.73 80.05C1711.05 79.8833 1711.25 79.7633 1711.33 79.69L1712.18 80.94C1712.12 81 1711.96 81.0967 1711.7 81.23C1711.46 81.3567 1711.14 81.4733 1710.74 81.58C1710.36 81.6867 1709.92 81.74 1709.42 81.74C1708.67 81.74 1707.97 81.5733 1707.32 81.24C1706.68 80.9 1706.15 80.4067 1705.75 79.76C1705.36 79.1133 1705.16 78.3233 1705.16 77.39C1705.16 76.45 1705.36 75.66 1705.75 75.02C1706.15 74.3733 1706.68 73.8833 1707.32 73.55C1707.97 73.2167 1708.67 73.05 1709.42 73.05C1709.91 73.05 1710.34 73.11 1710.72 73.23C1711.1 73.3433 1711.42 73.47 1711.66 73.61C1711.91 73.75 1712.07 73.8567 1712.15 73.93L1711.29 75.18C1711.24 75.1267 1711.14 75.0467 1710.98 74.94C1710.84 74.8267 1710.64 74.7233 1710.38 74.63C1710.13 74.5367 1709.83 74.49 1709.47 74.49C1709.05 74.49 1708.63 74.6067 1708.22 74.84C1707.82 75.0667 1707.49 75.3967 1707.23 75.83C1706.97 76.2633 1706.84 76.7833 1706.84 77.39C1706.84 77.9967 1706.97 78.52 1707.23 78.96C1707.49 79.3933 1707.82 79.7267 1708.22 79.96C1708.63 80.1867 1709.05 80.3 1709.47 80.3ZM1715.72 81.5H1713.97V67.74H1715.72V81.5ZM1719.31 77.75C1719.32 78.2433 1719.43 78.6933 1719.63 79.1C1719.84 79.5067 1720.15 79.83 1720.55 80.07C1720.97 80.31 1721.47 80.43 1722.07 80.43C1722.58 80.43 1723.01 80.3567 1723.36 80.21C1723.72 80.0567 1724.02 79.8767 1724.24 79.67C1724.47 79.4567 1724.63 79.2667 1724.73 79.1L1725.58 80.15C1725.36 80.47 1725.09 80.75 1724.77 80.99C1724.46 81.23 1724.08 81.4133 1723.62 81.54C1723.17 81.6733 1722.62 81.74 1721.96 81.74C1721.08 81.74 1720.32 81.5533 1719.67 81.18C1719.03 80.8 1718.54 80.2767 1718.19 79.61C1717.85 78.9367 1717.67 78.1667 1717.67 77.3C1717.67 76.5 1717.84 75.78 1718.16 75.14C1718.49 74.4933 1718.96 73.9833 1719.58 73.61C1720.21 73.2367 1720.96 73.05 1721.84 73.05C1722.65 73.05 1723.35 73.22 1723.94 73.56C1724.54 73.8933 1725.01 74.3667 1725.33 74.98C1725.67 75.5933 1725.83 76.3267 1725.83 77.18C1725.83 77.2333 1725.83 77.33 1725.82 77.47C1725.82 77.6033 1725.81 77.6967 1725.8 77.75H1719.31ZM1724.17 76.44C1724.17 76.1667 1724.09 75.8667 1723.93 75.54C1723.79 75.2133 1723.55 74.9333 1723.21 74.7C1722.88 74.4667 1722.43 74.35 1721.86 74.35C1721.28 74.35 1720.8 74.4633 1720.44 74.69C1720.09 74.9167 1719.83 75.1933 1719.66 75.52C1719.5 75.84 1719.4 76.1467 1719.37 76.44H1724.17ZM1730.83 73.05C1731.26 73.05 1731.66 73.0933 1732.02 73.18C1732.4 73.2667 1732.72 73.37 1732.98 73.49C1733.26 73.61 1733.45 73.7167 1733.56 73.81L1732.87 74.91C1732.74 74.79 1732.5 74.6567 1732.15 74.51C1731.81 74.3567 1731.42 74.28 1730.99 74.28C1730.53 74.28 1730.13 74.3733 1729.8 74.56C1729.48 74.74 1729.31 75.0033 1729.31 75.35C1729.31 75.6967 1729.48 75.9733 1729.81 76.18C1730.15 76.38 1730.61 76.5467 1731.17 76.68C1731.63 76.7867 1732.05 76.93 1732.44 77.11C1732.84 77.29 1733.17 77.54 1733.41 77.86C1733.66 78.1733 1733.78 78.5933 1733.78 79.12C1733.78 79.6 1733.68 80.01 1733.48 80.35C1733.28 80.6833 1733.01 80.9533 1732.67 81.16C1732.33 81.36 1731.95 81.5067 1731.53 81.6C1731.11 81.6933 1730.69 81.74 1730.25 81.74C1729.75 81.74 1729.29 81.6867 1728.88 81.58C1728.48 81.48 1728.13 81.36 1727.85 81.22C1727.58 81.0733 1727.38 80.9467 1727.25 80.84L1727.94 79.6C1728.12 79.7667 1728.4 79.9433 1728.79 80.13C1729.19 80.3167 1729.65 80.41 1730.15 80.41C1730.71 80.41 1731.17 80.2933 1731.51 80.06C1731.86 79.82 1732.03 79.51 1732.03 79.13C1732.03 78.8433 1731.95 78.6133 1731.78 78.44C1731.62 78.2667 1731.39 78.1267 1731.11 78.02C1730.83 77.9133 1730.53 77.82 1730.19 77.74C1729.87 77.6667 1729.56 77.57 1729.25 77.45C1728.95 77.33 1728.68 77.1767 1728.42 76.99C1728.18 76.7967 1727.98 76.5633 1727.83 76.29C1727.69 76.01 1727.61 75.6833 1727.61 75.31C1727.61 74.8367 1727.76 74.4333 1728.06 74.1C1728.36 73.76 1728.76 73.5 1729.24 73.32C1729.73 73.14 1730.26 73.05 1730.83 73.05Z" fill="#1C1F35"/>
<defs>
<linearGradient id="paint0_linear_1_57" x1="4.39888e-10" y1="0.560089" x2="1921" y2="0.560076" gradientUnits="userSpaceOnUse">
<stop stop-color="#D5D5D5" stop-opacity="0"/>
<stop offset="0.510417" stop-color="#D5D5D5"/>
<stop offset="1" stop-color="#D5D5D5" stop-opacity="0"/>
</linearGradient>
<linearGradient id="paint1_linear_1_57" x1="255.518" y1="71.6833" x2="276.904" y2="73.2021" gradientUnits="userSpaceOnUse">
<stop stop-color="#FFB629"/>
<stop offset="0.507189" stop-color="#FFDA56"/>
<stop offset="1" stop-color="#FFD7A6"/>
</linearGradient>
<linearGradient id="paint2_linear_1_57" x1="704.518" y1="71.6833" x2="725.904" y2="73.2021" gradientUnits="userSpaceOnUse">
<stop stop-color="#FFB629"/>
<stop offset="0.507189" stop-color="#FFDA56"/>
<stop offset="1" stop-color="#FFD7A6"/>
</linearGradient>
<linearGradient id="paint3_linear_1_57" x1="1149.52" y1="71.6833" x2="1170.9" y2="73.2021" gradientUnits="userSpaceOnUse">
<stop stop-color="#FFB629"/>
<stop offset="0.507189" stop-color="#FFDA56"/>
<stop offset="1" stop-color="#FFD7A6"/>
</linearGradient>
<linearGradient id="paint4_linear_1_57" x1="1577.52" y1="71.6833" x2="1598.9" y2="73.2021" gradientUnits="userSpaceOnUse">
<stop stop-color="#FFB629"/>
<stop offset="0.507189" stop-color="#FFDA56"/>
<stop offset="1" stop-color="#FFD7A6"/>
</linearGradient>
</defs>
</svg>
