<svg width="85" height="123" viewBox="0 0 85 123" fill="none" xmlns="http://www.w3.org/2000/svg">
<rect x="27" y="28" width="6" height="6" stroke="#1C1F35" stroke-linecap="round" stroke-linejoin="round"/>
<rect x="27" y="41" width="6" height="6" stroke="#1C1F35" stroke-linecap="round" stroke-linejoin="round"/>
<rect x="40" y="28" width="6" height="6" stroke="#1C1F35" stroke-linecap="round" stroke-linejoin="round"/>
<rect x="40" y="41" width="6" height="6" stroke="#1C1F35" stroke-linecap="round" stroke-linejoin="round"/>
<rect x="52" y="28" width="6" height="6" fill="#FFD550" stroke="#1C1F35" stroke-linecap="round" stroke-linejoin="round"/>
<rect x="52" y="41" width="6" height="6" stroke="#1C1F35" stroke-linecap="round" stroke-linejoin="round"/>
<path d="M68 20H17V9C17 7.34315 18.3431 6 20 6H65C66.6569 6 68 7.34315 68 9V20Z" fill="#FFD550"/>
<path d="M66 5.66699H19.3333C18.0447 5.66699 17 6.71166 17 8.00033V54.667C17 55.9557 18.0447 57.0003 19.3333 57.0003H66C67.2887 57.0003 68.3333 55.9557 68.3333 54.667V8.00033C68.3333 6.71166 67.2887 5.66699 66 5.66699Z" stroke="#1C1F35" stroke-linecap="round" stroke-linejoin="round"/>
<path d="M56.6666 1V10.3333" stroke="#1C1F35" stroke-linecap="round" stroke-linejoin="round"/>
<path d="M28.6667 1V10.3333" stroke="#1C1F35" stroke-linecap="round" stroke-linejoin="round"/>
<path d="M17 19.667H68.3333" stroke="#1C1F35" stroke-linecap="round" stroke-linejoin="round"/>
<path d="M31.8339 94C31.5672 94 31.3272 93.9067 31.1139 93.72C30.9272 93.5333 30.8339 93.2933 30.8339 93V73.12L25.0739 77.56C24.8339 77.7467 24.5806 77.8133 24.3139 77.76C24.0739 77.7067 23.8606 77.56 23.6739 77.32L21.6739 74.72C21.5139 74.48 21.4472 74.2267 21.4739 73.96C21.5272 73.6933 21.6739 73.48 21.9139 73.32L31.0339 66.28C31.1939 66.1733 31.3406 66.1067 31.4739 66.08C31.6339 66.0267 31.8072 66 31.9939 66H36.2339C36.5006 66 36.7272 66.0933 36.9139 66.28C37.1006 66.4667 37.1939 66.7067 37.1939 67V93C37.1939 93.2933 37.1006 93.5333 36.9139 93.72C36.7272 93.9067 36.5006 94 36.2339 94H31.8339ZM42.6145 94C42.3212 94 42.0812 93.9067 41.8945 93.72C41.7079 93.5333 41.6145 93.2933 41.6145 93V90.6C41.6145 90.3867 41.6679 90.1067 41.7745 89.76C41.9079 89.3867 42.1879 89.0267 42.6145 88.68L47.8945 83.44C49.8412 81.9467 51.4145 80.68 52.6145 79.64C53.8412 78.6 54.7479 77.6533 55.3345 76.8C55.9212 75.9467 56.2145 75.12 56.2145 74.32C56.2145 73.28 55.9212 72.4267 55.3345 71.76C54.7745 71.0667 53.8545 70.72 52.5745 70.72C51.7212 70.72 51.0012 70.9067 50.4145 71.28C49.8545 71.6267 49.4145 72.0933 49.0945 72.68C48.7745 73.2667 48.5612 73.9067 48.4545 74.6C48.3745 74.9467 48.2012 75.1867 47.9345 75.32C47.6945 75.4533 47.4412 75.52 47.1745 75.52H42.9345C42.6679 75.52 42.4545 75.44 42.2945 75.28C42.1345 75.0933 42.0545 74.8933 42.0545 74.68C42.0812 73.4533 42.3345 72.2933 42.8145 71.2C43.3212 70.1067 44.0279 69.1333 44.9345 68.28C45.8412 67.4267 46.9345 66.76 48.2145 66.28C49.4945 65.7733 50.9479 65.52 52.5745 65.52C54.8145 65.52 56.6945 65.8933 58.2145 66.64C59.7345 67.36 60.8812 68.36 61.6545 69.64C62.4279 70.92 62.8145 72.4 62.8145 74.08C62.8145 75.36 62.5479 76.5467 62.0145 77.64C61.5079 78.7333 60.7612 79.7867 59.7745 80.8C58.7879 81.7867 57.6145 82.8133 56.2545 83.88L51.5345 88.6H62.4145C62.7079 88.6 62.9479 88.6933 63.1345 88.88C63.3212 89.0667 63.4145 89.3067 63.4145 89.6V93C63.4145 93.2933 63.3212 93.5333 63.1345 93.72C62.9479 93.9067 62.7079 94 62.4145 94H42.6145Z" fill="#1C1F35"/>
<path d="M5.61406 117.16C4.8354 117.16 4.1314 117.053 3.50206 116.84C2.8834 116.616 2.39806 116.312 2.04606 115.928C1.69406 115.533 1.51806 115.091 1.51806 114.6C1.51806 114.333 1.6194 114.12 1.82206 113.96C2.0354 113.8 2.3234 113.715 2.68606 113.704C2.82473 114.419 3.14473 114.968 3.64606 115.352C4.15806 115.725 4.82473 115.912 5.64606 115.912C6.4674 115.912 7.11273 115.736 7.58206 115.384C8.06206 115.021 8.30206 114.536 8.30206 113.928C8.30206 113.405 8.08873 112.989 7.66206 112.68C7.2354 112.36 6.48873 112.056 5.42206 111.768C4.52606 111.523 3.81673 111.261 3.29406 110.984C2.7714 110.696 2.3874 110.365 2.14206 109.992C1.9074 109.608 1.79006 109.149 1.79006 108.616C1.79006 107.699 2.13673 106.973 2.83006 106.44C3.5234 105.907 4.47273 105.64 5.67806 105.64C6.70206 105.64 7.56073 105.88 8.25406 106.36C8.95806 106.84 9.43273 107.517 9.67806 108.392C9.5714 108.499 9.4274 108.589 9.24606 108.664C9.06473 108.728 8.88873 108.76 8.71806 108.76C8.55806 108.76 8.4194 108.723 8.30206 108.648C8.1954 108.573 8.10473 108.451 8.03006 108.28C7.80606 107.832 7.48606 107.485 7.07006 107.24C6.66473 106.995 6.20073 106.872 5.67806 106.872C4.92073 106.872 4.35006 107.011 3.96606 107.288C3.58206 107.565 3.39006 107.981 3.39006 108.536C3.39006 108.845 3.4594 109.107 3.59806 109.32C3.7474 109.523 3.99273 109.715 4.33406 109.896C4.68606 110.067 5.1874 110.248 5.83806 110.44C6.95806 110.771 7.80606 111.08 8.38206 111.368C8.95806 111.656 9.35806 111.981 9.58206 112.344C9.81673 112.696 9.93406 113.149 9.93406 113.704C9.93406 114.397 9.75273 115.005 9.39006 115.528C9.03806 116.051 8.53673 116.456 7.88606 116.744C7.2354 117.021 6.47806 117.16 5.61406 117.16ZM19.1597 111.992C19.1597 112.205 19.1437 112.483 19.1117 112.824H12.9677C13.0104 113.837 13.245 114.627 13.6717 115.192C14.0984 115.747 14.685 116.024 15.4317 116.024C15.933 116.024 16.349 115.923 16.6797 115.72C17.021 115.517 17.3517 115.165 17.6717 114.664C17.757 114.547 17.8744 114.488 18.0237 114.488C18.269 114.488 18.589 114.632 18.9837 114.92C18.7064 115.624 18.2584 116.173 17.6397 116.568C17.021 116.963 16.285 117.16 15.4317 117.16C14.6104 117.16 13.8957 116.979 13.2877 116.616C12.6904 116.243 12.2317 115.715 11.9117 115.032C11.5917 114.339 11.4317 113.523 11.4317 112.584C11.4317 111.165 11.789 110.056 12.5037 109.256C13.229 108.445 14.2264 108.04 15.4957 108.04C16.6584 108.04 17.5597 108.387 18.1997 109.08C18.8397 109.773 19.1597 110.744 19.1597 111.992ZM17.6077 111.8C17.6077 110.04 16.8877 109.16 15.4477 109.16C14.733 109.16 14.1677 109.384 13.7517 109.832C13.3357 110.28 13.085 110.936 12.9997 111.8H17.6077ZM25.1338 108.04C26.3071 108.04 27.2031 108.424 27.8218 109.192C28.4405 109.96 28.7498 111.075 28.7498 112.536C28.7498 113.464 28.5845 114.28 28.2538 114.984C27.9231 115.677 27.4485 116.216 26.8298 116.6C26.2218 116.973 25.5071 117.16 24.6858 117.16C23.9498 117.16 23.2511 117.032 22.5898 116.776V120.568H21.0698V111.32C21.0698 109.773 20.9685 108.824 20.7658 108.472C20.9685 108.365 21.1765 108.285 21.3898 108.232C21.6031 108.168 21.7898 108.136 21.9498 108.136C22.3018 108.136 22.5098 108.451 22.5738 109.08C23.2885 108.387 24.1418 108.04 25.1338 108.04ZM24.5738 116.056C25.4058 116.056 26.0458 115.752 26.4938 115.144C26.9525 114.536 27.1818 113.667 27.1818 112.536C27.1818 111.395 26.9951 110.547 26.6218 109.992C26.2591 109.427 25.7045 109.144 24.9578 109.144C24.5205 109.144 24.0938 109.245 23.6778 109.448C23.2618 109.651 22.8991 109.928 22.5898 110.28V115.64C22.8671 115.768 23.1765 115.869 23.5178 115.944C23.8698 116.019 24.2218 116.056 24.5738 116.056ZM34.9523 115.768C35.0376 115.811 35.107 115.885 35.1603 115.992C35.2136 116.088 35.2403 116.2 35.2403 116.328C35.2403 116.541 35.1603 116.696 35.0003 116.792C34.8403 116.909 34.6163 117 34.3283 117.064C34.051 117.128 33.747 117.16 33.4163 117.16C32.7016 117.16 32.131 116.968 31.7043 116.584C31.2776 116.189 31.0643 115.667 31.0643 115.016V109.272H29.5123V108.2H31.0643V105.8H32.5843V108.2H34.6803V109.272H32.5843V114.808C32.5843 115.235 32.6696 115.549 32.8403 115.752C33.011 115.944 33.2723 116.04 33.6243 116.04C34.051 116.04 34.4936 115.949 34.9523 115.768ZM43.9409 111.992C43.9409 112.205 43.9249 112.483 43.8929 112.824H37.7489C37.7916 113.837 38.0263 114.627 38.4529 115.192C38.8796 115.747 39.4663 116.024 40.2129 116.024C40.7143 116.024 41.1303 115.923 41.4609 115.72C41.8023 115.517 42.1329 115.165 42.4529 114.664C42.5383 114.547 42.6556 114.488 42.8049 114.488C43.0503 114.488 43.3703 114.632 43.7649 114.92C43.4876 115.624 43.0396 116.173 42.4209 116.568C41.8023 116.963 41.0663 117.16 40.2129 117.16C39.3916 117.16 38.6769 116.979 38.0689 116.616C37.4716 116.243 37.0129 115.715 36.6929 115.032C36.3729 114.339 36.2129 113.523 36.2129 112.584C36.2129 111.165 36.5703 110.056 37.2849 109.256C38.0103 108.445 39.0076 108.04 40.2769 108.04C41.4396 108.04 42.3409 108.387 42.9809 109.08C43.6209 109.773 43.9409 110.744 43.9409 111.992ZM42.3889 111.8C42.3889 110.04 41.6689 109.16 40.2289 109.16C39.5143 109.16 38.9489 109.384 38.5329 109.832C38.1169 110.28 37.8663 110.936 37.7809 111.8H42.3889ZM55.1631 108.04C55.9524 108.04 56.5871 108.285 57.0671 108.776C57.5471 109.267 57.7871 109.917 57.7871 110.728V117H56.2511V110.776C56.2511 110.189 56.1337 109.768 55.8991 109.512C55.6751 109.245 55.3017 109.112 54.7791 109.112C53.9897 109.112 53.2591 109.48 52.5871 110.216C52.5977 110.291 52.6031 110.397 52.6031 110.536V117H51.0991V110.616C51.0991 110.136 50.9764 109.768 50.7311 109.512C50.4857 109.245 50.1391 109.112 49.6911 109.112C49.2964 109.112 48.9124 109.213 48.5391 109.416C48.1764 109.608 47.8031 109.912 47.4191 110.328V117H45.8991V111.24C45.8991 109.693 45.8351 108.76 45.7071 108.44C45.8884 108.355 46.0751 108.285 46.2671 108.232C46.4697 108.168 46.6457 108.136 46.7951 108.136C47.0084 108.136 47.1631 108.221 47.2591 108.392C47.3551 108.552 47.4084 108.813 47.4191 109.176C47.8137 108.781 48.2244 108.493 48.6511 108.312C49.0777 108.131 49.5631 108.04 50.1071 108.04C50.5977 108.04 51.0351 108.152 51.4191 108.376C51.8031 108.589 52.0964 108.888 52.2991 109.272C52.6937 108.845 53.1204 108.536 53.5791 108.344C54.0484 108.141 54.5764 108.04 55.1631 108.04ZM64.5888 108.04C65.7408 108.04 66.6368 108.435 67.2768 109.224C67.9275 110.013 68.2528 111.107 68.2528 112.504C68.2528 113.955 67.9221 115.096 67.2608 115.928C66.5995 116.749 65.6928 117.16 64.5408 117.16C63.4635 117.16 62.6155 116.803 61.9968 116.088C61.9008 116.717 61.6821 117.032 61.3408 117.032C60.9141 117.032 60.5248 116.931 60.1728 116.728C60.3115 116.483 60.4075 116.195 60.4608 115.864C60.5141 115.523 60.5408 115.064 60.5408 114.488V104.344H62.0768V108.888C62.8021 108.323 63.6395 108.04 64.5888 108.04ZM64.3968 116.024C65.1541 116.024 65.7248 115.725 66.1088 115.128C66.5035 114.531 66.7008 113.656 66.7008 112.504C66.7008 111.416 66.5035 110.584 66.1088 110.008C65.7141 109.432 65.1435 109.144 64.3968 109.144C63.9701 109.144 63.5541 109.224 63.1488 109.384C62.7541 109.533 62.3968 109.752 62.0768 110.04V114.808C62.6528 115.619 63.4261 116.024 64.3968 116.024ZM77.3784 111.992C77.3784 112.205 77.3624 112.483 77.3304 112.824H71.1864C71.2291 113.837 71.4638 114.627 71.8904 115.192C72.3171 115.747 72.9038 116.024 73.6504 116.024C74.1518 116.024 74.5678 115.923 74.8984 115.72C75.2398 115.517 75.5704 115.165 75.8904 114.664C75.9758 114.547 76.0931 114.488 76.2424 114.488C76.4878 114.488 76.8078 114.632 77.2024 114.92C76.9251 115.624 76.4771 116.173 75.8584 116.568C75.2398 116.963 74.5038 117.16 73.6504 117.16C72.8291 117.16 72.1144 116.979 71.5064 116.616C70.9091 116.243 70.4504 115.715 70.1304 115.032C69.8104 114.339 69.6504 113.523 69.6504 112.584C69.6504 111.165 70.0078 110.056 70.7224 109.256C71.4478 108.445 72.4451 108.04 73.7144 108.04C74.8771 108.04 75.7784 108.387 76.4184 109.08C77.0584 109.773 77.3784 110.744 77.3784 111.992ZM75.8264 111.8C75.8264 110.04 75.1064 109.16 73.6664 109.16C72.9518 109.16 72.3864 109.384 71.9704 109.832C71.5544 110.28 71.3038 110.936 71.2184 111.8H75.8264ZM83.0326 108.088C83.8752 108.088 84.2966 108.403 84.2966 109.032C84.2966 109.288 84.2272 109.496 84.0886 109.656C83.8112 109.517 83.4486 109.448 83.0006 109.448C82.2966 109.448 81.7419 109.709 81.3366 110.232C80.9419 110.744 80.7446 111.453 80.7446 112.36V117H79.2246V108.2H80.7446V109.672C80.9792 109.192 81.2992 108.808 81.7046 108.52C82.1206 108.232 82.5632 108.088 83.0326 108.088Z" fill="#666C89"/>
</svg>
