<svg width="373" height="223" viewBox="0 0 373 223" fill="none" xmlns="http://www.w3.org/2000/svg">
<path d="M373 0L373 223L-9.74764e-06 223L0 -1.63043e-05L373 0Z" fill="#1C1F35" fill-opacity="0.91"/>
<path d="M155.68 117.84C155.573 117.925 155.413 117.995 155.2 118.048C154.987 118.101 154.763 118.128 154.528 118.128C154.219 118.128 153.979 118.085 153.808 118C153.637 117.904 153.504 117.749 153.408 117.536L152 114.72C151.797 114.315 151.568 114.037 151.312 113.888C151.056 113.728 150.688 113.648 150.208 113.648H149.296V118H147.264V106.8H151.024C152.4 106.8 153.467 107.099 154.224 107.696C154.981 108.293 155.36 109.136 155.36 110.224C155.36 110.949 155.163 111.573 154.768 112.096C154.384 112.608 153.835 112.987 153.12 113.232C153.387 113.499 153.632 113.845 153.856 114.272L155.68 117.84ZM150.88 112.16C151.701 112.16 152.309 112.005 152.704 111.696C153.099 111.376 153.296 110.885 153.296 110.224C153.296 109.563 153.104 109.077 152.72 108.768C152.336 108.448 151.733 108.288 150.912 108.288H149.296V112.16H150.88ZM164.812 113.008C164.812 113.189 164.791 113.493 164.748 113.92H158.86C158.913 114.837 159.127 115.547 159.5 116.048C159.873 116.549 160.38 116.8 161.02 116.8C161.457 116.8 161.815 116.715 162.092 116.544C162.38 116.363 162.705 116.016 163.068 115.504C163.132 115.408 163.244 115.36 163.404 115.36C163.703 115.36 164.113 115.547 164.636 115.92C164.337 116.645 163.873 117.2 163.244 117.584C162.625 117.968 161.884 118.16 161.02 118.16C159.729 118.16 158.711 117.755 157.964 116.944C157.228 116.123 156.86 115.003 156.86 113.584C156.86 112.176 157.233 111.067 157.98 110.256C158.727 109.445 159.751 109.04 161.052 109.04C162.247 109.04 163.169 109.387 163.82 110.08C164.481 110.773 164.812 111.749 164.812 113.008ZM162.844 112.736C162.844 111.147 162.231 110.352 161.004 110.352C160.396 110.352 159.911 110.555 159.548 110.96C159.196 111.355 158.977 111.947 158.892 112.736H162.844ZM173.28 115.056C173.28 115.803 173.317 116.352 173.392 116.704C173.466 117.056 173.605 117.36 173.808 117.616C173.626 117.755 173.392 117.872 173.104 117.968C172.826 118.053 172.57 118.096 172.336 118.096C171.824 118.096 171.514 117.675 171.408 116.832C170.821 117.717 169.909 118.16 168.672 118.16C167.882 118.16 167.242 117.952 166.752 117.536C166.272 117.109 166.032 116.555 166.032 115.872C166.032 114.901 166.464 114.165 167.328 113.664C168.192 113.152 169.53 112.848 171.344 112.752V112.032C171.344 110.987 170.794 110.464 169.696 110.464C169.301 110.464 168.928 110.544 168.576 110.704C168.224 110.853 167.808 111.115 167.328 111.488C167.253 111.541 167.178 111.568 167.104 111.568C166.933 111.568 166.752 111.472 166.56 111.28C166.368 111.077 166.197 110.805 166.048 110.464C166.485 110.037 167.056 109.696 167.76 109.44C168.464 109.173 169.178 109.04 169.904 109.04C170.981 109.04 171.813 109.301 172.4 109.824C172.986 110.347 173.28 111.083 173.28 112.032V115.056ZM169.248 116.832C170.069 116.832 170.768 116.32 171.344 115.296V113.856C169.125 113.952 168.016 114.565 168.016 115.696C168.016 116.059 168.122 116.341 168.336 116.544C168.549 116.736 168.853 116.832 169.248 116.832ZM182.823 115.104C182.823 115.797 182.855 116.336 182.919 116.72C182.983 117.093 183.095 117.408 183.255 117.664C182.732 117.952 182.225 118.096 181.735 118.096C181.521 118.096 181.351 118.011 181.223 117.84C181.095 117.659 181.004 117.371 180.951 116.976C180.652 117.381 180.305 117.68 179.911 117.872C179.527 118.064 179.073 118.16 178.551 118.16C177.409 118.16 176.519 117.765 175.879 116.976C175.239 116.176 174.919 115.061 174.919 113.632C174.919 112.693 175.079 111.883 175.399 111.2C175.729 110.507 176.199 109.973 176.807 109.6C177.415 109.227 178.129 109.04 178.951 109.04C179.292 109.04 179.639 109.088 179.991 109.184C180.343 109.28 180.641 109.408 180.887 109.568V105.344H182.823V115.104ZM178.839 116.832C179.276 116.832 179.66 116.731 179.991 116.528C180.321 116.315 180.62 115.984 180.887 115.536V110.96C180.684 110.779 180.423 110.629 180.103 110.512C179.783 110.395 179.457 110.336 179.127 110.336C178.412 110.336 177.863 110.624 177.479 111.2C177.095 111.765 176.903 112.576 176.903 113.632C176.903 115.765 177.548 116.832 178.839 116.832ZM198.542 118C198.521 116.069 198.457 114.427 198.35 113.072C198.243 111.707 198.073 110.368 197.838 109.056C197.422 110.155 197.065 111.189 196.766 112.16C196.467 113.131 196.067 114.56 195.566 116.448H193.982C193.545 114.72 193.171 113.349 192.862 112.336C192.563 111.312 192.195 110.219 191.758 109.056C191.534 110.368 191.363 111.707 191.246 113.072C191.139 114.437 191.065 116.08 191.022 118H189.022C189.065 115.739 189.193 113.723 189.406 111.952C189.63 110.171 189.971 108.453 190.43 106.8H192.686C193.251 108.176 193.673 109.291 193.95 110.144C194.238 110.987 194.51 111.936 194.766 112.992C195.033 111.957 195.31 111.024 195.598 110.192C195.897 109.349 196.334 108.219 196.91 106.8H199.166C199.646 108.464 199.998 110.187 200.222 111.968C200.446 113.749 200.569 115.76 200.59 118H198.542ZM206.012 118.16C204.732 118.16 203.75 117.765 203.068 116.976C202.385 116.187 202.044 115.056 202.044 113.584C202.044 112.112 202.385 110.987 203.068 110.208C203.75 109.429 204.732 109.04 206.012 109.04C207.292 109.04 208.268 109.429 208.94 110.208C209.622 110.987 209.964 112.112 209.964 113.584C209.964 115.067 209.622 116.203 208.94 116.992C208.257 117.771 207.281 118.16 206.012 118.16ZM206.012 116.832C206.705 116.832 207.206 116.576 207.516 116.064C207.836 115.541 207.996 114.715 207.996 113.584C207.996 112.464 207.836 111.648 207.516 111.136C207.206 110.624 206.705 110.368 206.012 110.368C205.318 110.368 204.812 110.624 204.492 111.136C204.182 111.637 204.028 112.453 204.028 113.584C204.028 114.725 204.182 115.552 204.492 116.064C204.812 116.576 205.318 116.832 206.012 116.832ZM215.7 109.088C216.17 109.088 216.511 109.184 216.724 109.376C216.948 109.568 217.06 109.861 217.06 110.256C217.06 110.405 217.039 110.555 216.996 110.704C216.954 110.843 216.895 110.955 216.82 111.04C216.703 110.965 216.559 110.912 216.388 110.88C216.228 110.848 216.01 110.832 215.732 110.832C215.039 110.832 214.506 111.072 214.132 111.552C213.759 112.021 213.572 112.699 213.572 113.584V118H211.636V109.2H213.572V110.512C213.796 110.064 214.095 109.717 214.468 109.472C214.842 109.216 215.252 109.088 215.7 109.088ZM225.953 113.008C225.953 113.189 225.931 113.493 225.889 113.92H220.001C220.054 114.837 220.267 115.547 220.641 116.048C221.014 116.549 221.521 116.8 222.161 116.8C222.598 116.8 222.955 116.715 223.233 116.544C223.521 116.363 223.846 116.016 224.209 115.504C224.273 115.408 224.385 115.36 224.545 115.36C224.843 115.36 225.254 115.547 225.777 115.92C225.478 116.645 225.014 117.2 224.385 117.584C223.766 117.968 223.025 118.16 222.161 118.16C220.87 118.16 219.851 117.755 219.105 116.944C218.369 116.123 218.001 115.003 218.001 113.584C218.001 112.176 218.374 111.067 219.121 110.256C219.867 109.445 220.891 109.04 222.193 109.04C223.387 109.04 224.31 109.387 224.961 110.08C225.622 110.773 225.953 111.749 225.953 113.008ZM223.985 112.736C223.985 111.147 223.371 110.352 222.145 110.352C221.537 110.352 221.051 110.555 220.689 110.96C220.337 111.355 220.118 111.947 220.033 112.736H223.985Z" fill="white"/>
</svg>
