<svg width="24" height="22" viewBox="0 0 24 22" fill="none" xmlns="http://www.w3.org/2000/svg">
<path fill-rule="evenodd" clip-rule="evenodd" d="M23.2209 11.233C23.2209 5.28459 18.0716 0.461426 11.7209 0.461426C5.37028 0.461426 0.220947 5.28459 0.220947 11.233C0.220947 16.6092 4.42563 21.0654 9.92407 21.8743L9.92407 14.3476L7.00338 14.3476L7.00338 11.233L9.92407 11.233L9.92407 8.85988C9.92407 6.16074 11.6414 4.66859 14.2679 4.66859C15.5262 4.66859 16.8426 4.87921 16.8426 4.87921L16.8426 7.53027L15.3917 7.53027C13.964 7.53027 13.5173 8.36026 13.5173 9.21333L13.5173 11.233L16.7065 11.233L16.1972 14.3476L13.5178 14.3476L13.5178 21.8752C19.0163 21.0669 23.2209 16.6106 23.2209 11.233Z" fill="white"/>
</svg>
